<svg width="1440" height="900" viewBox="0 0 1440 900" fill="none" xmlns="http://www.w3.org/2000/svg">
<rect width="1440" height="900" fill="white"/>
<rect width="1440" height="458" fill="#0089ED"/>
<g filter="url(#filter0_d_33_0)">
<rect x="450" y="79" width="539" height="741" rx="40" fill="white"/>
</g>
<path d="M596.62 271.775V276.89H580.395V288.165H593.045V293.28H580.395V310H574.125V271.775H596.62ZM600.341 294.71C600.341 291.667 600.964 288.972 602.211 286.625C603.494 284.278 605.217 282.463 607.381 281.18C609.581 279.86 612.001 279.2 614.641 279.2C617.024 279.2 619.096 279.677 620.856 280.63C622.652 281.547 624.082 282.702 625.146 284.095V279.695H631.471V310H625.146V305.49C624.082 306.92 622.634 308.112 620.801 309.065C618.967 310.018 616.877 310.495 614.531 310.495C611.927 310.495 609.544 309.835 607.381 308.515C605.217 307.158 603.494 305.288 602.211 302.905C600.964 300.485 600.341 297.753 600.341 294.71ZM625.146 294.82C625.146 292.73 624.706 290.915 623.826 289.375C622.982 287.835 621.864 286.662 620.471 285.855C619.077 285.048 617.574 284.645 615.961 284.645C614.347 284.645 612.844 285.048 611.451 285.855C610.057 286.625 608.921 287.78 608.041 289.32C607.197 290.823 606.776 292.62 606.776 294.71C606.776 296.8 607.197 298.633 608.041 300.21C608.921 301.787 610.057 302.997 611.451 303.84C612.881 304.647 614.384 305.05 615.961 305.05C617.574 305.05 619.077 304.647 620.471 303.84C621.864 303.033 622.982 301.86 623.826 300.32C624.706 298.743 625.146 296.91 625.146 294.82ZM645.261 304.885H659.011V310H638.001V304.885L651.806 284.81H638.001V279.695H659.011V284.81L645.261 304.885ZM693.37 294.105C693.37 295.242 693.296 296.268 693.15 297.185H669.995C670.178 299.605 671.076 301.548 672.69 303.015C674.303 304.482 676.283 305.215 678.63 305.215C682.003 305.215 684.386 303.803 685.78 300.98H692.545C691.628 303.767 689.96 306.058 687.54 307.855C685.156 309.615 682.186 310.495 678.63 310.495C675.733 310.495 673.13 309.853 670.82 308.57C668.546 307.25 666.75 305.417 665.43 303.07C664.146 300.687 663.505 297.937 663.505 294.82C663.505 291.703 664.128 288.972 665.375 286.625C666.658 284.242 668.436 282.408 670.71 281.125C673.02 279.842 675.66 279.2 678.63 279.2C681.49 279.2 684.038 279.823 686.275 281.07C688.511 282.317 690.253 284.077 691.5 286.35C692.746 288.587 693.37 291.172 693.37 294.105ZM686.825 292.125C686.788 289.815 685.963 287.963 684.35 286.57C682.736 285.177 680.738 284.48 678.355 284.48C676.191 284.48 674.34 285.177 672.8 286.57C671.26 287.927 670.343 289.778 670.05 292.125H686.825ZM705.81 284.095C706.727 282.555 707.937 281.363 709.44 280.52C710.98 279.64 712.795 279.2 714.885 279.2V285.69H713.29C710.833 285.69 708.963 286.313 707.68 287.56C706.433 288.807 705.81 290.97 705.81 294.05V310H699.54V279.695H705.81V284.095ZM741.206 269.3V310H734.936V269.3H741.206ZM762.583 310.495C759.723 310.495 757.138 309.853 754.828 308.57C752.518 307.25 750.703 305.417 749.383 303.07C748.063 300.687 747.403 297.937 747.403 294.82C747.403 291.74 748.081 289.008 749.438 286.625C750.794 284.242 752.646 282.408 754.993 281.125C757.339 279.842 759.961 279.2 762.858 279.2C765.754 279.2 768.376 279.842 770.723 281.125C773.069 282.408 774.921 284.242 776.278 286.625C777.634 289.008 778.313 291.74 778.313 294.82C778.313 297.9 777.616 300.632 776.223 303.015C774.829 305.398 772.923 307.25 770.503 308.57C768.119 309.853 765.479 310.495 762.583 310.495ZM762.583 305.05C764.196 305.05 765.699 304.665 767.093 303.895C768.523 303.125 769.678 301.97 770.558 300.43C771.438 298.89 771.878 297.02 771.878 294.82C771.878 292.62 771.456 290.768 770.613 289.265C769.769 287.725 768.651 286.57 767.258 285.8C765.864 285.03 764.361 284.645 762.748 284.645C761.134 284.645 759.631 285.03 758.238 285.8C756.881 286.57 755.799 287.725 754.993 289.265C754.186 290.768 753.783 292.62 753.783 294.82C753.783 298.083 754.608 300.613 756.258 302.41C757.944 304.17 760.053 305.05 762.583 305.05ZM796.721 279.2C799.067 279.2 801.139 279.677 802.936 280.63C804.769 281.547 806.199 282.702 807.226 284.095V279.695H813.551V310.495C813.551 313.282 812.964 315.757 811.791 317.92C810.617 320.12 808.912 321.843 806.676 323.09C804.476 324.337 801.836 324.96 798.756 324.96C794.649 324.96 791.239 323.988 788.526 322.045C785.812 320.138 784.272 317.535 783.906 314.235H790.121C790.597 315.812 791.606 317.077 793.146 318.03C794.722 319.02 796.592 319.515 798.756 319.515C801.286 319.515 803.321 318.745 804.861 317.205C806.437 315.665 807.226 313.428 807.226 310.495V305.435C806.162 306.865 804.714 308.075 802.881 309.065C801.084 310.018 799.031 310.495 796.721 310.495C794.081 310.495 791.661 309.835 789.461 308.515C787.297 307.158 785.574 305.288 784.291 302.905C783.044 300.485 782.421 297.753 782.421 294.71C782.421 291.667 783.044 288.972 784.291 286.625C785.574 284.278 787.297 282.463 789.461 281.18C791.661 279.86 794.081 279.2 796.721 279.2ZM807.226 294.82C807.226 292.73 806.786 290.915 805.906 289.375C805.062 287.835 803.944 286.662 802.551 285.855C801.157 285.048 799.654 284.645 798.041 284.645C796.427 284.645 794.924 285.048 793.531 285.855C792.137 286.625 791.001 287.78 790.121 289.32C789.277 290.823 788.856 292.62 788.856 294.71C788.856 296.8 789.277 298.633 790.121 300.21C791.001 301.787 792.137 302.997 793.531 303.84C794.961 304.647 796.464 305.05 798.041 305.05C799.654 305.05 801.157 304.647 802.551 303.84C803.944 303.033 805.062 301.86 805.906 300.32C806.786 298.743 807.226 296.91 807.226 294.82ZM824.976 275.68C823.839 275.68 822.886 275.295 822.116 274.525C821.346 273.755 820.961 272.802 820.961 271.665C820.961 270.528 821.346 269.575 822.116 268.805C822.886 268.035 823.839 267.65 824.976 267.65C826.076 267.65 827.011 268.035 827.781 268.805C828.551 269.575 828.936 270.528 828.936 271.665C828.936 272.802 828.551 273.755 827.781 274.525C827.011 275.295 826.076 275.68 824.976 275.68ZM828.056 279.695V310H821.786V279.695H828.056ZM851.578 279.2C853.961 279.2 856.088 279.695 857.958 280.685C859.865 281.675 861.35 283.142 862.413 285.085C863.476 287.028 864.008 289.375 864.008 292.125V310H857.793V293.06C857.793 290.347 857.115 288.275 855.758 286.845C854.401 285.378 852.55 284.645 850.203 284.645C847.856 284.645 845.986 285.378 844.593 286.845C843.236 288.275 842.558 290.347 842.558 293.06V310H836.288V279.695H842.558V283.16C843.585 281.913 844.886 280.942 846.463 280.245C848.076 279.548 849.781 279.2 851.578 279.2Z" fill="black"/>
<path d="M496.688 395.032V398.76H500.752V399.96H496.688V403.8H501.232V405H495.232V393.832H501.232V395.032H496.688ZM507.707 396.072C508.774 396.072 509.638 396.397 510.299 397.048C510.96 397.688 511.291 398.616 511.291 399.832V405H509.851V400.04C509.851 399.165 509.632 398.499 509.195 398.04C508.758 397.571 508.16 397.336 507.403 397.336C506.635 397.336 506.022 397.576 505.563 398.056C505.115 398.536 504.891 399.235 504.891 400.152V405H503.435V396.232H504.891V397.48C505.179 397.032 505.568 396.685 506.059 396.44C506.56 396.195 507.11 396.072 507.707 396.072ZM515.446 397.432V402.6C515.446 403.027 515.536 403.331 515.718 403.512C515.899 403.683 516.214 403.768 516.661 403.768H517.734V405H516.422C515.611 405 515.003 404.813 514.598 404.44C514.192 404.067 513.99 403.453 513.99 402.6V397.432H512.854V396.232H513.99V394.024H515.446V396.232H517.734V397.432H515.446ZM527.498 400.28C527.498 400.557 527.482 400.851 527.45 401.16H520.442C520.495 402.024 520.788 402.701 521.322 403.192C521.866 403.672 522.522 403.912 523.29 403.912C523.919 403.912 524.442 403.768 524.858 403.48C525.284 403.181 525.583 402.787 525.754 402.296H527.322C527.087 403.139 526.618 403.827 525.914 404.36C525.21 404.883 524.335 405.144 523.29 405.144C522.458 405.144 521.711 404.957 521.05 404.584C520.399 404.211 519.887 403.683 519.514 403C519.14 402.307 518.954 401.507 518.954 400.6C518.954 399.693 519.135 398.899 519.498 398.216C519.86 397.533 520.367 397.011 521.018 396.648C521.679 396.275 522.436 396.088 523.29 396.088C524.122 396.088 524.858 396.269 525.498 396.632C526.138 396.995 526.628 397.496 526.97 398.136C527.322 398.765 527.498 399.48 527.498 400.28ZM525.994 399.976C525.994 399.421 525.871 398.947 525.626 398.552C525.38 398.147 525.044 397.843 524.618 397.64C524.202 397.427 523.738 397.32 523.226 397.32C522.49 397.32 521.86 397.555 521.338 398.024C520.826 398.493 520.532 399.144 520.458 399.976H525.994ZM530.876 397.656C531.132 397.155 531.494 396.765 531.964 396.488C532.444 396.211 533.025 396.072 533.708 396.072V397.576H533.324C531.692 397.576 530.876 398.461 530.876 400.232V405H529.42V396.232H530.876V397.656ZM547.206 396.232L541.926 409.128H540.422L542.15 404.904L538.614 396.232H540.23L542.982 403.336L545.702 396.232H547.206ZM552.494 405.144C551.672 405.144 550.926 404.957 550.254 404.584C549.592 404.211 549.07 403.683 548.686 403C548.312 402.307 548.126 401.507 548.126 400.6C548.126 399.704 548.318 398.915 548.702 398.232C549.096 397.539 549.63 397.011 550.302 396.648C550.974 396.275 551.726 396.088 552.558 396.088C553.39 396.088 554.142 396.275 554.814 396.648C555.486 397.011 556.014 397.533 556.398 398.216C556.792 398.899 556.99 399.693 556.99 400.6C556.99 401.507 556.787 402.307 556.382 403C555.987 403.683 555.448 404.211 554.766 404.584C554.083 404.957 553.326 405.144 552.494 405.144ZM552.494 403.864C553.016 403.864 553.507 403.741 553.966 403.496C554.424 403.251 554.792 402.883 555.07 402.392C555.358 401.901 555.502 401.304 555.502 400.6C555.502 399.896 555.363 399.299 555.086 398.808C554.808 398.317 554.446 397.955 553.998 397.72C553.55 397.475 553.064 397.352 552.542 397.352C552.008 397.352 551.518 397.475 551.07 397.72C550.632 397.955 550.28 398.317 550.014 398.808C549.747 399.299 549.614 399.896 549.614 400.6C549.614 401.315 549.742 401.917 549.998 402.408C550.264 402.899 550.616 403.267 551.054 403.512C551.491 403.747 551.971 403.864 552.494 403.864ZM566.68 396.232V405H565.224V403.704C564.947 404.152 564.557 404.504 564.056 404.76C563.565 405.005 563.021 405.128 562.424 405.128C561.741 405.128 561.128 404.989 560.584 404.712C560.04 404.424 559.608 403.997 559.288 403.432C558.979 402.867 558.824 402.179 558.824 401.368V396.232H560.264V401.176C560.264 402.04 560.483 402.707 560.92 403.176C561.357 403.635 561.955 403.864 562.712 403.864C563.491 403.864 564.104 403.624 564.552 403.144C565 402.664 565.224 401.965 565.224 401.048V396.232H566.68ZM570.594 397.656C570.85 397.155 571.213 396.765 571.682 396.488C572.162 396.211 572.744 396.072 573.426 396.072V397.576H573.042C571.41 397.576 570.594 398.461 570.594 400.232V405H569.138V396.232H570.594V397.656ZM587.149 396.232V405H585.693V403.704C585.415 404.152 585.026 404.504 584.525 404.76C584.034 405.005 583.49 405.128 582.893 405.128C582.21 405.128 581.597 404.989 581.053 404.712C580.509 404.424 580.077 403.997 579.757 403.432C579.447 402.867 579.293 402.179 579.293 401.368V396.232H580.733V401.176C580.733 402.04 580.951 402.707 581.389 403.176C581.826 403.635 582.423 403.864 583.181 403.864C583.959 403.864 584.573 403.624 585.021 403.144C585.469 402.664 585.693 401.965 585.693 401.048V396.232H587.149ZM592.711 405.144C592.039 405.144 591.436 405.032 590.903 404.808C590.37 404.573 589.948 404.253 589.639 403.848C589.33 403.432 589.159 402.957 589.127 402.424H590.631C590.674 402.861 590.876 403.219 591.239 403.496C591.612 403.773 592.098 403.912 592.695 403.912C593.25 403.912 593.687 403.789 594.007 403.544C594.327 403.299 594.487 402.989 594.487 402.616C594.487 402.232 594.316 401.949 593.975 401.768C593.634 401.576 593.106 401.389 592.391 401.208C591.74 401.037 591.207 400.867 590.791 400.696C590.386 400.515 590.034 400.253 589.735 399.912C589.447 399.56 589.303 399.101 589.303 398.536C589.303 398.088 589.436 397.677 589.703 397.304C589.97 396.931 590.348 396.637 590.839 396.424C591.33 396.2 591.89 396.088 592.519 396.088C593.49 396.088 594.274 396.333 594.871 396.824C595.468 397.315 595.788 397.987 595.831 398.84H594.375C594.343 398.381 594.156 398.013 593.815 397.736C593.484 397.459 593.036 397.32 592.471 397.32C591.948 397.32 591.532 397.432 591.223 397.656C590.914 397.88 590.759 398.173 590.759 398.536C590.759 398.824 590.85 399.064 591.031 399.256C591.223 399.437 591.458 399.587 591.735 399.704C592.023 399.811 592.418 399.933 592.919 400.072C593.548 400.243 594.06 400.413 594.455 400.584C594.85 400.744 595.186 400.989 595.463 401.32C595.751 401.651 595.9 402.083 595.911 402.616C595.911 403.096 595.778 403.528 595.511 403.912C595.244 404.296 594.866 404.6 594.375 404.824C593.895 405.037 593.34 405.144 592.711 405.144ZM605.966 400.28C605.966 400.557 605.95 400.851 605.918 401.16H598.91C598.964 402.024 599.257 402.701 599.79 403.192C600.334 403.672 600.99 403.912 601.758 403.912C602.388 403.912 602.91 403.768 603.326 403.48C603.753 403.181 604.052 402.787 604.222 402.296H605.79C605.556 403.139 605.086 403.827 604.382 404.36C603.678 404.883 602.804 405.144 601.758 405.144C600.926 405.144 600.18 404.957 599.518 404.584C598.868 404.211 598.356 403.683 597.982 403C597.609 402.307 597.422 401.507 597.422 400.6C597.422 399.693 597.604 398.899 597.966 398.216C598.329 397.533 598.836 397.011 599.486 396.648C600.148 396.275 600.905 396.088 601.758 396.088C602.59 396.088 603.326 396.269 603.966 396.632C604.606 396.995 605.097 397.496 605.438 398.136C605.79 398.765 605.966 399.48 605.966 400.28ZM604.462 399.976C604.462 399.421 604.34 398.947 604.094 398.552C603.849 398.147 603.513 397.843 603.086 397.64C602.67 397.427 602.206 397.32 601.694 397.32C600.958 397.32 600.329 397.555 599.806 398.024C599.294 398.493 599.001 399.144 598.926 399.976H604.462ZM609.344 397.656C609.6 397.155 609.963 396.765 610.432 396.488C610.912 396.211 611.494 396.072 612.176 396.072V397.576H611.792C610.16 397.576 609.344 398.461 609.344 400.232V405H607.888V396.232H609.344V397.656ZM618.129 396.072C619.196 396.072 620.06 396.397 620.721 397.048C621.382 397.688 621.713 398.616 621.713 399.832V405H620.273V400.04C620.273 399.165 620.054 398.499 619.617 398.04C619.18 397.571 618.582 397.336 617.825 397.336C617.057 397.336 616.444 397.576 615.985 398.056C615.537 398.536 615.313 399.235 615.313 400.152V405H613.857V396.232H615.313V397.48C615.601 397.032 615.99 396.685 616.481 396.44C616.982 396.195 617.532 396.072 618.129 396.072ZM623.547 400.584C623.547 399.688 623.729 398.904 624.091 398.232C624.454 397.549 624.95 397.021 625.579 396.648C626.219 396.275 626.929 396.088 627.707 396.088C628.475 396.088 629.142 396.253 629.707 396.584C630.273 396.915 630.694 397.331 630.971 397.832V396.232H632.443V405H630.971V403.368C630.683 403.88 630.251 404.307 629.675 404.648C629.11 404.979 628.449 405.144 627.691 405.144C626.913 405.144 626.209 404.952 625.579 404.568C624.95 404.184 624.454 403.645 624.091 402.952C623.729 402.259 623.547 401.469 623.547 400.584ZM630.971 400.6C630.971 399.939 630.838 399.363 630.571 398.872C630.305 398.381 629.942 398.008 629.483 397.752C629.035 397.485 628.539 397.352 627.995 397.352C627.451 397.352 626.955 397.48 626.507 397.736C626.059 397.992 625.702 398.365 625.435 398.856C625.169 399.347 625.035 399.923 625.035 400.584C625.035 401.256 625.169 401.843 625.435 402.344C625.702 402.835 626.059 403.213 626.507 403.48C626.955 403.736 627.451 403.864 627.995 403.864C628.539 403.864 629.035 403.736 629.483 403.48C629.942 403.213 630.305 402.835 630.571 402.344C630.838 401.843 630.971 401.261 630.971 400.6ZM645.448 396.072C646.131 396.072 646.739 396.216 647.272 396.504C647.805 396.781 648.227 397.203 648.536 397.768C648.845 398.333 649 399.021 649 399.832V405H647.56V400.04C647.56 399.165 647.341 398.499 646.904 398.04C646.477 397.571 645.896 397.336 645.16 397.336C644.403 397.336 643.8 397.581 643.352 398.072C642.904 398.552 642.68 399.251 642.68 400.168V405H641.24V400.04C641.24 399.165 641.021 398.499 640.584 398.04C640.157 397.571 639.576 397.336 638.84 397.336C638.083 397.336 637.48 397.581 637.032 398.072C636.584 398.552 636.36 399.251 636.36 400.168V405H634.904V396.232H636.36V397.496C636.648 397.037 637.032 396.685 637.512 396.44C638.003 396.195 638.541 396.072 639.128 396.072C639.864 396.072 640.515 396.237 641.08 396.568C641.645 396.899 642.067 397.384 642.344 398.024C642.589 397.405 642.995 396.925 643.56 396.584C644.125 396.243 644.755 396.072 645.448 396.072ZM659.388 400.28C659.388 400.557 659.372 400.851 659.34 401.16H652.332C652.386 402.024 652.679 402.701 653.212 403.192C653.756 403.672 654.412 403.912 655.18 403.912C655.81 403.912 656.332 403.768 656.748 403.48C657.175 403.181 657.474 402.787 657.644 402.296H659.212C658.978 403.139 658.508 403.827 657.804 404.36C657.1 404.883 656.226 405.144 655.18 405.144C654.348 405.144 653.602 404.957 652.94 404.584C652.29 404.211 651.778 403.683 651.404 403C651.031 402.307 650.844 401.507 650.844 400.6C650.844 399.693 651.026 398.899 651.388 398.216C651.751 397.533 652.258 397.011 652.908 396.648C653.57 396.275 654.327 396.088 655.18 396.088C656.012 396.088 656.748 396.269 657.388 396.632C658.028 396.995 658.519 397.496 658.86 398.136C659.212 398.765 659.388 399.48 659.388 400.28ZM657.884 399.976C657.884 399.421 657.762 398.947 657.516 398.552C657.271 398.147 656.935 397.843 656.508 397.64C656.092 397.427 655.628 397.32 655.116 397.32C654.38 397.32 653.751 397.555 653.228 398.024C652.716 398.493 652.423 399.144 652.348 399.976H657.884ZM669.4 405.144C668.578 405.144 667.832 404.957 667.16 404.584C666.498 404.211 665.976 403.683 665.592 403C665.218 402.307 665.032 401.507 665.032 400.6C665.032 399.704 665.224 398.915 665.608 398.232C666.002 397.539 666.536 397.011 667.208 396.648C667.88 396.275 668.632 396.088 669.464 396.088C670.296 396.088 671.048 396.275 671.72 396.648C672.392 397.011 672.92 397.533 673.304 398.216C673.698 398.899 673.896 399.693 673.896 400.6C673.896 401.507 673.693 402.307 673.288 403C672.893 403.683 672.354 404.211 671.672 404.584C670.989 404.957 670.232 405.144 669.4 405.144ZM669.4 403.864C669.922 403.864 670.413 403.741 670.872 403.496C671.33 403.251 671.698 402.883 671.976 402.392C672.264 401.901 672.408 401.304 672.408 400.6C672.408 399.896 672.269 399.299 671.992 398.808C671.714 398.317 671.352 397.955 670.904 397.72C670.456 397.475 669.97 397.352 669.448 397.352C668.914 397.352 668.424 397.475 667.976 397.72C667.538 397.955 667.186 398.317 666.92 398.808C666.653 399.299 666.52 399.896 666.52 400.6C666.52 401.315 666.648 401.917 666.904 402.408C667.17 402.899 667.522 403.267 667.96 403.512C668.397 403.747 668.877 403.864 669.4 403.864ZM677.266 397.656C677.522 397.155 677.885 396.765 678.354 396.488C678.834 396.211 679.415 396.072 680.098 396.072V397.576H679.714C678.082 397.576 677.266 398.461 677.266 400.232V405H675.81V396.232H677.266V397.656ZM694.045 400.28C694.045 400.557 694.029 400.851 693.997 401.16H686.989C687.042 402.024 687.335 402.701 687.869 403.192C688.413 403.672 689.069 403.912 689.837 403.912C690.466 403.912 690.989 403.768 691.405 403.48C691.831 403.181 692.13 402.787 692.301 402.296H693.869C693.634 403.139 693.165 403.827 692.461 404.36C691.757 404.883 690.882 405.144 689.837 405.144C689.005 405.144 688.258 404.957 687.597 404.584C686.946 404.211 686.434 403.683 686.061 403C685.687 402.307 685.501 401.507 685.501 400.6C685.501 399.693 685.682 398.899 686.045 398.216C686.407 397.533 686.914 397.011 687.565 396.648C688.226 396.275 688.983 396.088 689.837 396.088C690.669 396.088 691.405 396.269 692.045 396.632C692.685 396.995 693.175 397.496 693.517 398.136C693.869 398.765 694.045 399.48 694.045 400.28ZM692.541 399.976C692.541 399.421 692.418 398.947 692.173 398.552C691.927 398.147 691.591 397.843 691.165 397.64C690.749 397.427 690.285 397.32 689.773 397.32C689.037 397.32 688.407 397.555 687.885 398.024C687.373 398.493 687.079 399.144 687.005 399.976H692.541ZM706.51 396.072C707.193 396.072 707.801 396.216 708.334 396.504C708.868 396.781 709.289 397.203 709.598 397.768C709.908 398.333 710.062 399.021 710.062 399.832V405H708.622V400.04C708.622 399.165 708.404 398.499 707.966 398.04C707.54 397.571 706.958 397.336 706.222 397.336C705.465 397.336 704.862 397.581 704.414 398.072C703.966 398.552 703.742 399.251 703.742 400.168V405H702.302V400.04C702.302 399.165 702.084 398.499 701.646 398.04C701.22 397.571 700.638 397.336 699.902 397.336C699.145 397.336 698.542 397.581 698.094 398.072C697.646 398.552 697.422 399.251 697.422 400.168V405H695.966V396.232H697.422V397.496C697.71 397.037 698.094 396.685 698.574 396.44C699.065 396.195 699.604 396.072 700.19 396.072C700.926 396.072 701.577 396.237 702.142 396.568C702.708 396.899 703.129 397.384 703.406 398.024C703.652 397.405 704.057 396.925 704.622 396.584C705.188 396.243 705.817 396.072 706.51 396.072ZM711.907 400.584C711.907 399.688 712.088 398.904 712.451 398.232C712.813 397.549 713.309 397.021 713.939 396.648C714.579 396.275 715.288 396.088 716.067 396.088C716.835 396.088 717.501 396.253 718.067 396.584C718.632 396.915 719.053 397.331 719.331 397.832V396.232H720.803V405H719.331V403.368C719.043 403.88 718.611 404.307 718.035 404.648C717.469 404.979 716.808 405.144 716.051 405.144C715.272 405.144 714.568 404.952 713.939 404.568C713.309 404.184 712.813 403.645 712.451 402.952C712.088 402.259 711.907 401.469 711.907 400.584ZM719.331 400.6C719.331 399.939 719.197 399.363 718.931 398.872C718.664 398.381 718.301 398.008 717.843 397.752C717.395 397.485 716.899 397.352 716.355 397.352C715.811 397.352 715.315 397.48 714.867 397.736C714.419 397.992 714.061 398.365 713.795 398.856C713.528 399.347 713.395 399.923 713.395 400.584C713.395 401.256 713.528 401.843 713.795 402.344C714.061 402.835 714.419 403.213 714.867 403.48C715.315 403.736 715.811 403.864 716.355 403.864C716.899 403.864 717.395 403.736 717.843 403.48C718.301 403.213 718.664 402.835 718.931 402.344C719.197 401.843 719.331 401.261 719.331 400.6ZM724.015 394.808C723.738 394.808 723.503 394.712 723.311 394.52C723.119 394.328 723.023 394.093 723.023 393.816C723.023 393.539 723.119 393.304 723.311 393.112C723.503 392.92 723.738 392.824 724.015 392.824C724.282 392.824 724.506 392.92 724.687 393.112C724.879 393.304 724.975 393.539 724.975 393.816C724.975 394.093 724.879 394.328 724.687 394.52C724.506 394.712 724.282 394.808 724.015 394.808ZM724.719 396.232V405H723.263V396.232H724.719ZM728.657 393.16V405H727.201V393.16H728.657ZM734.86 400.584C734.86 399.688 735.041 398.904 735.404 398.232C735.767 397.549 736.263 397.021 736.892 396.648C737.532 396.275 738.241 396.088 739.02 396.088C739.788 396.088 740.455 396.253 741.02 396.584C741.585 396.915 742.007 397.331 742.284 397.832V396.232H743.756V405H742.284V403.368C741.996 403.88 741.564 404.307 740.988 404.648C740.423 404.979 739.761 405.144 739.004 405.144C738.225 405.144 737.521 404.952 736.892 404.568C736.263 404.184 735.767 403.645 735.404 402.952C735.041 402.259 734.86 401.469 734.86 400.584ZM742.284 400.6C742.284 399.939 742.151 399.363 741.884 398.872C741.617 398.381 741.255 398.008 740.796 397.752C740.348 397.485 739.852 397.352 739.308 397.352C738.764 397.352 738.268 397.48 737.82 397.736C737.372 397.992 737.015 398.365 736.748 398.856C736.481 399.347 736.348 399.923 736.348 400.584C736.348 401.256 736.481 401.843 736.748 402.344C737.015 402.835 737.372 403.213 737.82 403.48C738.268 403.736 738.764 403.864 739.308 403.864C739.852 403.864 740.348 403.736 740.796 403.48C741.255 403.213 741.617 402.835 741.884 402.344C742.151 401.843 742.284 401.261 742.284 400.6ZM745.672 400.584C745.672 399.688 745.854 398.904 746.216 398.232C746.579 397.549 747.075 397.021 747.704 396.648C748.344 396.275 749.059 396.088 749.848 396.088C750.531 396.088 751.166 396.248 751.752 396.568C752.339 396.877 752.787 397.288 753.096 397.8V393.16H754.568V405H753.096V403.352C752.808 403.875 752.382 404.307 751.816 404.648C751.251 404.979 750.59 405.144 749.832 405.144C749.054 405.144 748.344 404.952 747.704 404.568C747.075 404.184 746.579 403.645 746.216 402.952C745.854 402.259 745.672 401.469 745.672 400.584ZM753.096 400.6C753.096 399.939 752.963 399.363 752.696 398.872C752.43 398.381 752.067 398.008 751.608 397.752C751.16 397.485 750.664 397.352 750.12 397.352C749.576 397.352 749.08 397.48 748.632 397.736C748.184 397.992 747.827 398.365 747.56 398.856C747.294 399.347 747.16 399.923 747.16 400.584C747.16 401.256 747.294 401.843 747.56 402.344C747.827 402.835 748.184 403.213 748.632 403.48C749.08 403.736 749.576 403.864 750.12 403.864C750.664 403.864 751.16 403.736 751.608 403.48C752.067 403.213 752.43 402.835 752.696 402.344C752.963 401.843 753.096 401.261 753.096 400.6ZM756.485 400.584C756.485 399.688 756.666 398.904 757.029 398.232C757.392 397.549 757.888 397.021 758.517 396.648C759.157 396.275 759.872 396.088 760.661 396.088C761.344 396.088 761.978 396.248 762.565 396.568C763.152 396.877 763.6 397.288 763.909 397.8V393.16H765.381V405H763.909V403.352C763.621 403.875 763.194 404.307 762.629 404.648C762.064 404.979 761.402 405.144 760.645 405.144C759.866 405.144 759.157 404.952 758.517 404.568C757.888 404.184 757.392 403.645 757.029 402.952C756.666 402.259 756.485 401.469 756.485 400.584ZM763.909 400.6C763.909 399.939 763.776 399.363 763.509 398.872C763.242 398.381 762.88 398.008 762.421 397.752C761.973 397.485 761.477 397.352 760.933 397.352C760.389 397.352 759.893 397.48 759.445 397.736C758.997 397.992 758.64 398.365 758.373 398.856C758.106 399.347 757.973 399.923 757.973 400.584C757.973 401.256 758.106 401.843 758.373 402.344C758.64 402.835 758.997 403.213 759.445 403.48C759.893 403.736 760.389 403.864 760.933 403.864C761.477 403.864 761.973 403.736 762.421 403.48C762.88 403.213 763.242 402.835 763.509 402.344C763.776 401.843 763.909 401.261 763.909 400.6ZM769.297 397.656C769.553 397.155 769.916 396.765 770.385 396.488C770.865 396.211 771.447 396.072 772.129 396.072V397.576H771.745C770.113 397.576 769.297 398.461 769.297 400.232V405H767.841V396.232H769.297V397.656ZM781.81 400.28C781.81 400.557 781.794 400.851 781.762 401.16H774.754C774.807 402.024 775.101 402.701 775.634 403.192C776.178 403.672 776.834 403.912 777.602 403.912C778.231 403.912 778.754 403.768 779.17 403.48C779.597 403.181 779.895 402.787 780.066 402.296H781.634C781.399 403.139 780.93 403.827 780.226 404.36C779.522 404.883 778.647 405.144 777.602 405.144C776.77 405.144 776.023 404.957 775.362 404.584C774.711 404.211 774.199 403.683 773.826 403C773.453 402.307 773.266 401.507 773.266 400.6C773.266 399.693 773.447 398.899 773.81 398.216C774.173 397.533 774.679 397.011 775.33 396.648C775.991 396.275 776.749 396.088 777.602 396.088C778.434 396.088 779.17 396.269 779.81 396.632C780.45 396.995 780.941 397.496 781.282 398.136C781.634 398.765 781.81 399.48 781.81 400.28ZM780.306 399.976C780.306 399.421 780.183 398.947 779.938 398.552C779.693 398.147 779.357 397.843 778.93 397.64C778.514 397.427 778.05 397.32 777.538 397.32C776.802 397.32 776.173 397.555 775.65 398.024C775.138 398.493 774.845 399.144 774.77 399.976H780.306ZM786.836 405.144C786.164 405.144 785.561 405.032 785.028 404.808C784.495 404.573 784.073 404.253 783.764 403.848C783.455 403.432 783.284 402.957 783.252 402.424H784.756C784.799 402.861 785.001 403.219 785.364 403.496C785.737 403.773 786.223 403.912 786.82 403.912C787.375 403.912 787.812 403.789 788.132 403.544C788.452 403.299 788.612 402.989 788.612 402.616C788.612 402.232 788.441 401.949 788.1 401.768C787.759 401.576 787.231 401.389 786.516 401.208C785.865 401.037 785.332 400.867 784.916 400.696C784.511 400.515 784.159 400.253 783.86 399.912C783.572 399.56 783.428 399.101 783.428 398.536C783.428 398.088 783.561 397.677 783.828 397.304C784.095 396.931 784.473 396.637 784.964 396.424C785.455 396.2 786.015 396.088 786.644 396.088C787.615 396.088 788.399 396.333 788.996 396.824C789.593 397.315 789.913 397.987 789.956 398.84H788.5C788.468 398.381 788.281 398.013 787.94 397.736C787.609 397.459 787.161 397.32 786.596 397.32C786.073 397.32 785.657 397.432 785.348 397.656C785.039 397.88 784.884 398.173 784.884 398.536C784.884 398.824 784.975 399.064 785.156 399.256C785.348 399.437 785.583 399.587 785.86 399.704C786.148 399.811 786.543 399.933 787.044 400.072C787.673 400.243 788.185 400.413 788.58 400.584C788.975 400.744 789.311 400.989 789.588 401.32C789.876 401.651 790.025 402.083 790.036 402.616C790.036 403.096 789.903 403.528 789.636 403.912C789.369 404.296 788.991 404.6 788.5 404.824C788.02 405.037 787.465 405.144 786.836 405.144ZM795.195 405.144C794.523 405.144 793.921 405.032 793.387 404.808C792.854 404.573 792.433 404.253 792.123 403.848C791.814 403.432 791.643 402.957 791.611 402.424H793.115C793.158 402.861 793.361 403.219 793.723 403.496C794.097 403.773 794.582 403.912 795.179 403.912C795.734 403.912 796.171 403.789 796.491 403.544C796.811 403.299 796.971 402.989 796.971 402.616C796.971 402.232 796.801 401.949 796.459 401.768C796.118 401.576 795.59 401.389 794.875 401.208C794.225 401.037 793.691 400.867 793.275 400.696C792.87 400.515 792.518 400.253 792.219 399.912C791.931 399.56 791.787 399.101 791.787 398.536C791.787 398.088 791.921 397.677 792.187 397.304C792.454 396.931 792.833 396.637 793.323 396.424C793.814 396.2 794.374 396.088 795.003 396.088C795.974 396.088 796.758 396.333 797.355 396.824C797.953 397.315 798.273 397.987 798.315 398.84H796.859C796.827 398.381 796.641 398.013 796.299 397.736C795.969 397.459 795.521 397.32 794.955 397.32C794.433 397.32 794.017 397.432 793.707 397.656C793.398 397.88 793.243 398.173 793.243 398.536C793.243 398.824 793.334 399.064 793.515 399.256C793.707 399.437 793.942 399.587 794.219 399.704C794.507 399.811 794.902 399.933 795.403 400.072C796.033 400.243 796.545 400.413 796.939 400.584C797.334 400.744 797.67 400.989 797.947 401.32C798.235 401.651 798.385 402.083 798.395 402.616C798.395 403.096 798.262 403.528 797.995 403.912C797.729 404.296 797.35 404.6 796.859 404.824C796.379 405.037 795.825 405.144 795.195 405.144Z" fill="black"/>
<rect x="494.5" y="424.5" width="450" height="56" rx="8.5" fill="white" stroke="#4285F4"/>
<path d="M521.1 449.012V452.666H524.81V453.478H521.1V457.188H525.23V458H520.12V448.2H525.23V449.012H521.1ZM530.745 450.216C531.66 450.216 532.406 450.501 532.985 451.07C533.564 451.63 533.853 452.447 533.853 453.52V458H532.887V453.632C532.887 452.801 532.677 452.167 532.257 451.728C531.846 451.289 531.282 451.07 530.563 451.07C529.826 451.07 529.238 451.303 528.799 451.77C528.36 452.237 528.141 452.923 528.141 453.828V458H527.161V450.356H528.141V451.658C528.384 451.191 528.734 450.837 529.191 450.594C529.648 450.342 530.166 450.216 530.745 450.216ZM535.572 454.164C535.572 453.38 535.731 452.694 536.048 452.106C536.366 451.509 536.8 451.051 537.35 450.734C537.91 450.407 538.54 450.244 539.24 450.244C539.912 450.244 540.519 450.407 541.06 450.734C541.602 451.061 541.998 451.485 542.25 452.008V447.64H543.23V458H542.25V456.292C542.017 456.824 541.634 457.263 541.102 457.608C540.57 457.944 539.945 458.112 539.226 458.112C538.526 458.112 537.896 457.949 537.336 457.622C536.786 457.295 536.352 456.833 536.034 456.236C535.726 455.639 535.572 454.948 535.572 454.164ZM542.25 454.178C542.25 453.562 542.124 453.021 541.872 452.554C541.62 452.087 541.275 451.728 540.836 451.476C540.407 451.224 539.931 451.098 539.408 451.098C538.867 451.098 538.382 451.219 537.952 451.462C537.523 451.705 537.182 452.059 536.93 452.526C536.688 452.983 536.566 453.529 536.566 454.164C536.566 454.789 536.688 455.34 536.93 455.816C537.182 456.283 537.523 456.642 537.952 456.894C538.382 457.137 538.867 457.258 539.408 457.258C539.931 457.258 540.407 457.132 540.836 456.88C541.275 456.628 541.62 456.269 541.872 455.802C542.124 455.335 542.25 454.794 542.25 454.178ZM552.384 453.786C552.384 454.122 552.374 454.379 552.356 454.556H546.014C546.042 455.135 546.182 455.629 546.434 456.04C546.686 456.451 547.017 456.763 547.428 456.978C547.838 457.183 548.286 457.286 548.772 457.286C549.406 457.286 549.938 457.132 550.368 456.824C550.806 456.516 551.096 456.101 551.236 455.578H552.272C552.085 456.325 551.684 456.936 551.068 457.412C550.461 457.879 549.696 458.112 548.772 458.112C548.053 458.112 547.409 457.953 546.84 457.636C546.27 457.309 545.822 456.852 545.496 456.264C545.178 455.667 545.02 454.971 545.02 454.178C545.02 453.385 545.178 452.689 545.496 452.092C545.813 451.495 546.256 451.037 546.826 450.72C547.395 450.403 548.044 450.244 548.772 450.244C549.5 450.244 550.134 450.403 550.676 450.72C551.226 451.037 551.646 451.467 551.936 452.008C552.234 452.54 552.384 453.133 552.384 453.786ZM551.39 453.758C551.399 453.189 551.282 452.703 551.04 452.302C550.806 451.901 550.484 451.597 550.074 451.392C549.663 451.187 549.215 451.084 548.73 451.084C548.002 451.084 547.381 451.317 546.868 451.784C546.354 452.251 546.07 452.909 546.014 453.758H551.39ZM555.157 451.714C555.371 451.238 555.698 450.869 556.137 450.608C556.585 450.347 557.131 450.216 557.775 450.216V451.238H557.509C556.799 451.238 556.23 451.429 555.801 451.812C555.371 452.195 555.157 452.834 555.157 453.73V458H554.177V450.356H555.157V451.714ZM566.165 453.786C566.165 454.122 566.156 454.379 566.137 454.556H559.795C559.823 455.135 559.963 455.629 560.215 456.04C560.467 456.451 560.798 456.763 561.209 456.978C561.62 457.183 562.068 457.286 562.553 457.286C563.188 457.286 563.72 457.132 564.149 456.824C564.588 456.516 564.877 456.101 565.017 455.578H566.053C565.866 456.325 565.465 456.936 564.849 457.412C564.242 457.879 563.477 458.112 562.553 458.112C561.834 458.112 561.19 457.953 560.621 457.636C560.052 457.309 559.604 456.852 559.277 456.264C558.96 455.667 558.801 454.971 558.801 454.178C558.801 453.385 558.96 452.689 559.277 452.092C559.594 451.495 560.038 451.037 560.607 450.72C561.176 450.403 561.825 450.244 562.553 450.244C563.281 450.244 563.916 450.403 564.457 450.72C565.008 451.037 565.428 451.467 565.717 452.008C566.016 452.54 566.165 453.133 566.165 453.786ZM565.171 453.758C565.18 453.189 565.064 452.703 564.821 452.302C564.588 451.901 564.266 451.597 563.855 451.392C563.444 451.187 562.996 451.084 562.511 451.084C561.783 451.084 561.162 451.317 560.649 451.784C560.136 452.251 559.851 452.909 559.795 453.758H565.171ZM571.22 457.286C571.864 457.286 572.401 457.132 572.83 456.824C573.269 456.507 573.553 456.068 573.684 455.508H574.734C574.566 456.245 574.202 456.847 573.642 457.314C573.091 457.781 572.391 458.042 571.542 458.098V458.938C572.093 458.919 572.527 459.022 572.844 459.246C573.171 459.479 573.334 459.811 573.334 460.24C573.334 460.66 573.185 460.991 572.886 461.234C572.587 461.486 572.191 461.612 571.696 461.612H570.296V460.954H571.5C571.845 460.954 572.097 460.893 572.256 460.772C572.424 460.66 572.508 460.483 572.508 460.24C572.508 459.792 572.172 459.568 571.5 459.568H570.856V458.098C570.203 458.042 569.624 457.851 569.12 457.524C568.616 457.188 568.219 456.735 567.93 456.166C567.65 455.587 567.51 454.925 567.51 454.178C567.51 453.385 567.669 452.694 567.986 452.106C568.303 451.509 568.742 451.051 569.302 450.734C569.862 450.407 570.501 450.244 571.22 450.244C572.163 450.244 572.937 450.477 573.544 450.944C574.16 451.411 574.557 452.045 574.734 452.848H573.684C573.553 452.297 573.269 451.868 572.83 451.56C572.401 451.243 571.864 451.084 571.22 451.084C570.707 451.084 570.245 451.201 569.834 451.434C569.423 451.667 569.097 452.017 568.854 452.484C568.621 452.941 568.504 453.506 568.504 454.178C568.504 454.85 568.621 455.419 568.854 455.886C569.097 456.353 569.423 456.703 569.834 456.936C570.245 457.169 570.707 457.286 571.22 457.286ZM579.89 458.112C579.171 458.112 578.522 457.953 577.944 457.636C577.374 457.309 576.922 456.852 576.586 456.264C576.259 455.667 576.096 454.971 576.096 454.178C576.096 453.385 576.264 452.694 576.6 452.106C576.936 451.509 577.393 451.051 577.972 450.734C578.55 450.407 579.199 450.244 579.918 450.244C580.636 450.244 581.285 450.407 581.864 450.734C582.452 451.051 582.909 451.509 583.236 452.106C583.572 452.694 583.74 453.385 583.74 454.178C583.74 454.962 583.572 455.653 583.236 456.25C582.9 456.847 582.438 457.309 581.85 457.636C581.262 457.953 580.608 458.112 579.89 458.112ZM579.89 457.258C580.394 457.258 580.86 457.146 581.29 456.922C581.719 456.689 582.064 456.343 582.326 455.886C582.596 455.419 582.732 454.85 582.732 454.178C582.732 453.506 582.601 452.941 582.34 452.484C582.078 452.017 581.733 451.672 581.304 451.448C580.874 451.215 580.408 451.098 579.904 451.098C579.4 451.098 578.933 451.215 578.504 451.448C578.074 451.672 577.729 452.017 577.468 452.484C577.216 452.941 577.09 453.506 577.09 454.178C577.09 454.85 577.216 455.419 577.468 455.886C577.729 456.343 578.07 456.689 578.49 456.922C578.919 457.146 579.386 457.258 579.89 457.258ZM588.92 454.164C588.92 453.38 589.079 452.694 589.396 452.106C589.713 451.509 590.147 451.051 590.698 450.734C591.258 450.407 591.888 450.244 592.588 450.244C593.26 450.244 593.867 450.407 594.408 450.734C594.949 451.061 595.346 451.485 595.598 452.008V447.64H596.578V458H595.598V456.292C595.365 456.824 594.982 457.263 594.45 457.608C593.918 457.944 593.293 458.112 592.574 458.112C591.874 458.112 591.244 457.949 590.684 457.622C590.133 457.295 589.699 456.833 589.382 456.236C589.074 455.639 588.92 454.948 588.92 454.164ZM595.598 454.178C595.598 453.562 595.472 453.021 595.22 452.554C594.968 452.087 594.623 451.728 594.184 451.476C593.755 451.224 593.279 451.098 592.756 451.098C592.215 451.098 591.729 451.219 591.3 451.462C590.871 451.705 590.53 452.059 590.278 452.526C590.035 452.983 589.914 453.529 589.914 454.164C589.914 454.789 590.035 455.34 590.278 455.816C590.53 456.283 590.871 456.642 591.3 456.894C591.729 457.137 592.215 457.258 592.756 457.258C593.279 457.258 593.755 457.132 594.184 456.88C594.623 456.628 594.968 456.269 595.22 455.802C595.472 455.335 595.598 454.794 595.598 454.178ZM605.731 453.786C605.731 454.122 605.722 454.379 605.703 454.556H599.361C599.389 455.135 599.529 455.629 599.781 456.04C600.033 456.451 600.365 456.763 600.775 456.978C601.186 457.183 601.634 457.286 602.119 457.286C602.754 457.286 603.286 457.132 603.715 456.824C604.154 456.516 604.443 456.101 604.583 455.578H605.619C605.433 456.325 605.031 456.936 604.415 457.412C603.809 457.879 603.043 458.112 602.119 458.112C601.401 458.112 600.757 457.953 600.187 457.636C599.618 457.309 599.17 456.852 598.843 456.264C598.526 455.667 598.367 454.971 598.367 454.178C598.367 453.385 598.526 452.689 598.843 452.092C599.161 451.495 599.604 451.037 600.173 450.72C600.743 450.403 601.391 450.244 602.119 450.244C602.847 450.244 603.482 450.403 604.023 450.72C604.574 451.037 604.994 451.467 605.283 452.008C605.582 452.54 605.731 453.133 605.731 453.786ZM604.737 453.758C604.747 453.189 604.63 452.703 604.387 452.302C604.154 451.901 603.832 451.597 603.421 451.392C603.011 451.187 602.563 451.084 602.077 451.084C601.349 451.084 600.729 451.317 600.215 451.784C599.702 452.251 599.417 452.909 599.361 453.758H604.737ZM612.346 449.012V452.666H616.056V453.478H612.346V457.188H616.476V458H611.366V448.2H616.476V449.012H612.346ZM627.507 450.216C628.403 450.216 629.131 450.501 629.691 451.07C630.26 451.63 630.545 452.447 630.545 453.52V458H629.579V453.632C629.579 452.801 629.378 452.167 628.977 451.728C628.576 451.289 628.03 451.07 627.339 451.07C626.62 451.07 626.046 451.308 625.617 451.784C625.188 452.26 624.973 452.951 624.973 453.856V458H624.007V453.632C624.007 452.801 623.806 452.167 623.405 451.728C623.004 451.289 622.453 451.07 621.753 451.07C621.034 451.07 620.46 451.308 620.031 451.784C619.602 452.26 619.387 452.951 619.387 453.856V458H618.407V450.356H619.387V451.672C619.63 451.196 619.975 450.837 620.423 450.594C620.871 450.342 621.37 450.216 621.921 450.216C622.584 450.216 623.162 450.375 623.657 450.692C624.161 451.009 624.525 451.476 624.749 452.092C624.954 451.485 625.304 451.023 625.799 450.706C626.303 450.379 626.872 450.216 627.507 450.216ZM632.274 454.164C632.274 453.38 632.428 452.694 632.736 452.106C633.053 451.509 633.487 451.051 634.038 450.734C634.598 450.407 635.228 450.244 635.928 450.244C636.656 450.244 637.281 450.412 637.804 450.748C638.336 451.084 638.718 451.513 638.952 452.036V450.356H639.932V458H638.952V456.306C638.709 456.829 638.322 457.263 637.79 457.608C637.267 457.944 636.642 458.112 635.914 458.112C635.223 458.112 634.598 457.949 634.038 457.622C633.487 457.295 633.053 456.833 632.736 456.236C632.428 455.639 632.274 454.948 632.274 454.164ZM638.952 454.178C638.952 453.562 638.826 453.021 638.574 452.554C638.322 452.087 637.976 451.728 637.538 451.476C637.108 451.224 636.632 451.098 636.11 451.098C635.568 451.098 635.083 451.219 634.654 451.462C634.224 451.705 633.884 452.059 633.632 452.526C633.389 452.983 633.268 453.529 633.268 454.164C633.268 454.789 633.389 455.34 633.632 455.816C633.884 456.283 634.224 456.642 634.654 456.894C635.083 457.137 635.568 457.258 636.11 457.258C636.632 457.258 637.108 457.132 637.538 456.88C637.976 456.628 638.322 456.269 638.574 455.802C638.826 455.335 638.952 454.794 638.952 454.178ZM642.659 448.914C642.463 448.914 642.295 448.844 642.155 448.704C642.015 448.564 641.945 448.391 641.945 448.186C641.945 447.981 642.015 447.813 642.155 447.682C642.295 447.542 642.463 447.472 642.659 447.472C642.855 447.472 643.023 447.542 643.163 447.682C643.303 447.813 643.373 447.981 643.373 448.186C643.373 448.391 643.303 448.564 643.163 448.704C643.023 448.844 642.855 448.914 642.659 448.914ZM643.149 450.356V458H642.169V450.356H643.149ZM646.348 447.64V458H645.368V447.64H646.348Z" fill="#808080"/>
<path d="M496.688 527.032V530.76H500.752V531.96H496.688V535.8H501.232V537H495.232V525.832H501.232V527.032H496.688ZM507.707 528.072C508.774 528.072 509.638 528.397 510.299 529.048C510.96 529.688 511.291 530.616 511.291 531.832V537H509.851V532.04C509.851 531.165 509.632 530.499 509.195 530.04C508.758 529.571 508.16 529.336 507.403 529.336C506.635 529.336 506.022 529.576 505.563 530.056C505.115 530.536 504.891 531.235 504.891 532.152V537H503.435V528.232H504.891V529.48C505.179 529.032 505.568 528.685 506.059 528.44C506.56 528.195 507.11 528.072 507.707 528.072ZM515.446 529.432V534.6C515.446 535.027 515.536 535.331 515.718 535.512C515.899 535.683 516.214 535.768 516.661 535.768H517.734V537H516.422C515.611 537 515.003 536.813 514.598 536.44C514.192 536.067 513.99 535.453 513.99 534.6V529.432H512.854V528.232H513.99V526.024H515.446V528.232H517.734V529.432H515.446ZM527.498 532.28C527.498 532.557 527.482 532.851 527.45 533.16H520.442C520.495 534.024 520.788 534.701 521.322 535.192C521.866 535.672 522.522 535.912 523.29 535.912C523.919 535.912 524.442 535.768 524.858 535.48C525.284 535.181 525.583 534.787 525.754 534.296H527.322C527.087 535.139 526.618 535.827 525.914 536.36C525.21 536.883 524.335 537.144 523.29 537.144C522.458 537.144 521.711 536.957 521.05 536.584C520.399 536.211 519.887 535.683 519.514 535C519.14 534.307 518.954 533.507 518.954 532.6C518.954 531.693 519.135 530.899 519.498 530.216C519.86 529.533 520.367 529.011 521.018 528.648C521.679 528.275 522.436 528.088 523.29 528.088C524.122 528.088 524.858 528.269 525.498 528.632C526.138 528.995 526.628 529.496 526.97 530.136C527.322 530.765 527.498 531.48 527.498 532.28ZM525.994 531.976C525.994 531.421 525.871 530.947 525.626 530.552C525.38 530.147 525.044 529.843 524.618 529.64C524.202 529.427 523.738 529.32 523.226 529.32C522.49 529.32 521.86 529.555 521.338 530.024C520.826 530.493 520.532 531.144 520.458 531.976H525.994ZM530.876 529.656C531.132 529.155 531.494 528.765 531.964 528.488C532.444 528.211 533.025 528.072 533.708 528.072V529.576H533.324C531.692 529.576 530.876 530.461 530.876 532.232V537H529.42V528.232H530.876V529.656ZM547.206 528.232L541.926 541.128H540.422L542.15 536.904L538.614 528.232H540.23L542.982 535.336L545.702 528.232H547.206ZM552.494 537.144C551.672 537.144 550.926 536.957 550.254 536.584C549.592 536.211 549.07 535.683 548.686 535C548.312 534.307 548.126 533.507 548.126 532.6C548.126 531.704 548.318 530.915 548.702 530.232C549.096 529.539 549.63 529.011 550.302 528.648C550.974 528.275 551.726 528.088 552.558 528.088C553.39 528.088 554.142 528.275 554.814 528.648C555.486 529.011 556.014 529.533 556.398 530.216C556.792 530.899 556.99 531.693 556.99 532.6C556.99 533.507 556.787 534.307 556.382 535C555.987 535.683 555.448 536.211 554.766 536.584C554.083 536.957 553.326 537.144 552.494 537.144ZM552.494 535.864C553.016 535.864 553.507 535.741 553.966 535.496C554.424 535.251 554.792 534.883 555.07 534.392C555.358 533.901 555.502 533.304 555.502 532.6C555.502 531.896 555.363 531.299 555.086 530.808C554.808 530.317 554.446 529.955 553.998 529.72C553.55 529.475 553.064 529.352 552.542 529.352C552.008 529.352 551.518 529.475 551.07 529.72C550.632 529.955 550.28 530.317 550.014 530.808C549.747 531.299 549.614 531.896 549.614 532.6C549.614 533.315 549.742 533.917 549.998 534.408C550.264 534.899 550.616 535.267 551.054 535.512C551.491 535.747 551.971 535.864 552.494 535.864ZM566.68 528.232V537H565.224V535.704C564.947 536.152 564.557 536.504 564.056 536.76C563.565 537.005 563.021 537.128 562.424 537.128C561.741 537.128 561.128 536.989 560.584 536.712C560.04 536.424 559.608 535.997 559.288 535.432C558.979 534.867 558.824 534.179 558.824 533.368V528.232H560.264V533.176C560.264 534.04 560.483 534.707 560.92 535.176C561.357 535.635 561.955 535.864 562.712 535.864C563.491 535.864 564.104 535.624 564.552 535.144C565 534.664 565.224 533.965 565.224 533.048V528.232H566.68ZM570.594 529.656C570.85 529.155 571.213 528.765 571.682 528.488C572.162 528.211 572.744 528.072 573.426 528.072V529.576H573.042C571.41 529.576 570.594 530.461 570.594 532.232V537H569.138V528.232H570.594V529.656ZM586.829 529.112C586.829 530.04 586.509 530.813 585.869 531.432C585.239 532.04 584.274 532.344 582.973 532.344H580.829V537H579.373V525.848H582.973C584.231 525.848 585.186 526.152 585.837 526.76C586.498 527.368 586.829 528.152 586.829 529.112ZM582.973 531.144C583.783 531.144 584.381 530.968 584.765 530.616C585.149 530.264 585.341 529.763 585.341 529.112C585.341 527.736 584.551 527.048 582.973 527.048H580.829V531.144H582.973ZM588.094 532.584C588.094 531.688 588.276 530.904 588.638 530.232C589.001 529.549 589.497 529.021 590.126 528.648C590.766 528.275 591.476 528.088 592.254 528.088C593.022 528.088 593.689 528.253 594.254 528.584C594.82 528.915 595.241 529.331 595.518 529.832V528.232H596.99V537H595.518V535.368C595.23 535.88 594.798 536.307 594.222 536.648C593.657 536.979 592.996 537.144 592.238 537.144C591.46 537.144 590.756 536.952 590.126 536.568C589.497 536.184 589.001 535.645 588.638 534.952C588.276 534.259 588.094 533.469 588.094 532.584ZM595.518 532.6C595.518 531.939 595.385 531.363 595.118 530.872C594.852 530.381 594.489 530.008 594.03 529.752C593.582 529.485 593.086 529.352 592.542 529.352C591.998 529.352 591.502 529.48 591.054 529.736C590.606 529.992 590.249 530.365 589.982 530.856C589.716 531.347 589.582 531.923 589.582 532.584C589.582 533.256 589.716 533.843 589.982 534.344C590.249 534.835 590.606 535.213 591.054 535.48C591.502 535.736 591.998 535.864 592.542 535.864C593.086 535.864 593.582 535.736 594.03 535.48C594.489 535.213 594.852 534.835 595.118 534.344C595.385 533.843 595.518 533.261 595.518 532.6ZM602.555 537.144C601.883 537.144 601.28 537.032 600.747 536.808C600.213 536.573 599.792 536.253 599.483 535.848C599.173 535.432 599.003 534.957 598.971 534.424H600.475C600.517 534.861 600.72 535.219 601.083 535.496C601.456 535.773 601.941 535.912 602.539 535.912C603.093 535.912 603.531 535.789 603.851 535.544C604.171 535.299 604.331 534.989 604.331 534.616C604.331 534.232 604.16 533.949 603.819 533.768C603.477 533.576 602.949 533.389 602.235 533.208C601.584 533.037 601.051 532.867 600.635 532.696C600.229 532.515 599.877 532.253 599.579 531.912C599.291 531.56 599.147 531.101 599.147 530.536C599.147 530.088 599.28 529.677 599.547 529.304C599.813 528.931 600.192 528.637 600.683 528.424C601.173 528.2 601.733 528.088 602.363 528.088C603.333 528.088 604.117 528.333 604.715 528.824C605.312 529.315 605.632 529.987 605.675 530.84H604.219C604.187 530.381 604 530.013 603.659 529.736C603.328 529.459 602.88 529.32 602.315 529.32C601.792 529.32 601.376 529.432 601.067 529.656C600.757 529.88 600.603 530.173 600.603 530.536C600.603 530.824 600.693 531.064 600.875 531.256C601.067 531.437 601.301 531.587 601.579 531.704C601.867 531.811 602.261 531.933 602.763 532.072C603.392 532.243 603.904 532.413 604.299 532.584C604.693 532.744 605.029 532.989 605.307 533.32C605.595 533.651 605.744 534.083 605.755 534.616C605.755 535.096 605.621 535.528 605.355 535.912C605.088 536.296 604.709 536.6 604.219 536.824C603.739 537.037 603.184 537.144 602.555 537.144ZM610.914 537.144C610.242 537.144 609.639 537.032 609.106 536.808C608.573 536.573 608.151 536.253 607.842 535.848C607.533 535.432 607.362 534.957 607.33 534.424H608.834C608.877 534.861 609.079 535.219 609.442 535.496C609.815 535.773 610.301 535.912 610.898 535.912C611.453 535.912 611.89 535.789 612.21 535.544C612.53 535.299 612.69 534.989 612.69 534.616C612.69 534.232 612.519 533.949 612.178 533.768C611.837 533.576 611.309 533.389 610.594 533.208C609.943 533.037 609.41 532.867 608.994 532.696C608.589 532.515 608.237 532.253 607.938 531.912C607.65 531.56 607.506 531.101 607.506 530.536C607.506 530.088 607.639 529.677 607.906 529.304C608.173 528.931 608.551 528.637 609.042 528.424C609.533 528.2 610.093 528.088 610.722 528.088C611.693 528.088 612.477 528.333 613.074 528.824C613.671 529.315 613.991 529.987 614.034 530.84H612.578C612.546 530.381 612.359 530.013 612.018 529.736C611.687 529.459 611.239 529.32 610.674 529.32C610.151 529.32 609.735 529.432 609.426 529.656C609.117 529.88 608.962 530.173 608.962 530.536C608.962 530.824 609.053 531.064 609.234 531.256C609.426 531.437 609.661 531.587 609.938 531.704C610.226 531.811 610.621 531.933 611.122 532.072C611.751 532.243 612.263 532.413 612.658 532.584C613.053 532.744 613.389 532.989 613.666 533.32C613.954 533.651 614.103 534.083 614.114 534.616C614.114 535.096 613.981 535.528 613.714 535.912C613.447 536.296 613.069 536.6 612.578 536.824C612.098 537.037 611.543 537.144 610.914 537.144ZM627.85 528.232L625.114 537H623.61L621.498 530.04L619.386 537H617.882L615.13 528.232H616.618L618.634 535.592L620.81 528.232H622.298L624.426 535.608L626.41 528.232H627.85ZM633.119 537.144C632.297 537.144 631.551 536.957 630.879 536.584C630.217 536.211 629.695 535.683 629.311 535C628.937 534.307 628.751 533.507 628.751 532.6C628.751 531.704 628.943 530.915 629.327 530.232C629.721 529.539 630.255 529.011 630.927 528.648C631.599 528.275 632.351 528.088 633.183 528.088C634.015 528.088 634.767 528.275 635.439 528.648C636.111 529.011 636.639 529.533 637.023 530.216C637.417 530.899 637.615 531.693 637.615 532.6C637.615 533.507 637.412 534.307 637.007 535C636.612 535.683 636.073 536.211 635.391 536.584C634.708 536.957 633.951 537.144 633.119 537.144ZM633.119 535.864C633.641 535.864 634.132 535.741 634.591 535.496C635.049 535.251 635.417 534.883 635.695 534.392C635.983 533.901 636.127 533.304 636.127 532.6C636.127 531.896 635.988 531.299 635.711 530.808C635.433 530.317 635.071 529.955 634.623 529.72C634.175 529.475 633.689 529.352 633.167 529.352C632.633 529.352 632.143 529.475 631.695 529.72C631.257 529.955 630.905 530.317 630.639 530.808C630.372 531.299 630.239 531.896 630.239 532.6C630.239 533.315 630.367 533.917 630.623 534.408C630.889 534.899 631.241 535.267 631.679 535.512C632.116 535.747 632.596 535.864 633.119 535.864ZM640.985 529.656C641.241 529.155 641.604 528.765 642.073 528.488C642.553 528.211 643.134 528.072 643.817 528.072V529.576H643.433C641.801 529.576 640.985 530.461 640.985 532.232V537H639.529V528.232H640.985V529.656ZM644.954 532.584C644.954 531.688 645.135 530.904 645.498 530.232C645.86 529.549 646.356 529.021 646.986 528.648C647.626 528.275 648.34 528.088 649.13 528.088C649.812 528.088 650.447 528.248 651.034 528.568C651.62 528.877 652.068 529.288 652.378 529.8V525.16H653.85V537H652.378V535.352C652.09 535.875 651.663 536.307 651.098 536.648C650.532 536.979 649.871 537.144 649.114 537.144C648.335 537.144 647.626 536.952 646.986 536.568C646.356 536.184 645.86 535.645 645.498 534.952C645.135 534.259 644.954 533.469 644.954 532.584ZM652.378 532.6C652.378 531.939 652.244 531.363 651.978 530.872C651.711 530.381 651.348 530.008 650.89 529.752C650.442 529.485 649.946 529.352 649.402 529.352C648.858 529.352 648.362 529.48 647.914 529.736C647.466 529.992 647.108 530.365 646.842 530.856C646.575 531.347 646.442 531.923 646.442 532.584C646.442 533.256 646.575 533.843 646.842 534.344C647.108 534.835 647.466 535.213 647.914 535.48C648.362 535.736 648.858 535.864 649.402 535.864C649.946 535.864 650.442 535.736 650.89 535.48C651.348 535.213 651.711 534.835 651.978 534.344C652.244 533.843 652.378 533.261 652.378 532.6Z" fill="black"/>
<rect x="494.5" y="556.5" width="450" height="56" rx="8.5" fill="white" stroke="#ADADAD"/>
<path d="M526.378 583.028C526.378 583.868 526.103 584.545 525.552 585.058C525.001 585.571 524.175 585.828 523.074 585.828H521.1V590H520.12V580.214H523.074C524.166 580.214 524.987 580.471 525.538 580.984C526.098 581.497 526.378 582.179 526.378 583.028ZM523.074 584.988C524.605 584.988 525.37 584.335 525.37 583.028C525.37 582.375 525.188 581.88 524.824 581.544C524.46 581.208 523.877 581.04 523.074 581.04H521.1V584.988H523.074ZM527.574 586.164C527.574 585.38 527.728 584.694 528.036 584.106C528.354 583.509 528.788 583.051 529.338 582.734C529.898 582.407 530.528 582.244 531.228 582.244C531.956 582.244 532.582 582.412 533.104 582.748C533.636 583.084 534.019 583.513 534.252 584.036V582.356H535.232V590H534.252V588.306C534.01 588.829 533.622 589.263 533.09 589.608C532.568 589.944 531.942 590.112 531.214 590.112C530.524 590.112 529.898 589.949 529.338 589.622C528.788 589.295 528.354 588.833 528.036 588.236C527.728 587.639 527.574 586.948 527.574 586.164ZM534.252 586.178C534.252 585.562 534.126 585.021 533.874 584.554C533.622 584.087 533.277 583.728 532.838 583.476C532.409 583.224 531.933 583.098 531.41 583.098C530.869 583.098 530.384 583.219 529.954 583.462C529.525 583.705 529.184 584.059 528.932 584.526C528.69 584.983 528.568 585.529 528.568 586.164C528.568 586.789 528.69 587.34 528.932 587.816C529.184 588.283 529.525 588.642 529.954 588.894C530.384 589.137 530.869 589.258 531.41 589.258C531.933 589.258 532.409 589.132 532.838 588.88C533.277 588.628 533.622 588.269 533.874 587.802C534.126 587.335 534.252 586.794 534.252 586.178ZM540.102 590.112C539.224 590.112 538.506 589.911 537.946 589.51C537.395 589.099 537.087 588.544 537.022 587.844H538.03C538.076 588.273 538.277 588.623 538.632 588.894C538.996 589.155 539.481 589.286 540.088 589.286C540.62 589.286 541.035 589.16 541.334 588.908C541.642 588.656 541.796 588.343 541.796 587.97C541.796 587.709 541.712 587.494 541.544 587.326C541.376 587.158 541.161 587.027 540.9 586.934C540.648 586.831 540.302 586.724 539.864 586.612C539.294 586.463 538.832 586.313 538.478 586.164C538.123 586.015 537.82 585.795 537.568 585.506C537.325 585.207 537.204 584.811 537.204 584.316C537.204 583.943 537.316 583.597 537.54 583.28C537.764 582.963 538.081 582.711 538.492 582.524C538.902 582.337 539.369 582.244 539.892 582.244C540.713 582.244 541.376 582.454 541.88 582.874C542.384 583.285 542.654 583.854 542.692 584.582H541.712C541.684 584.134 541.506 583.775 541.18 583.504C540.862 583.224 540.424 583.084 539.864 583.084C539.369 583.084 538.968 583.201 538.66 583.434C538.352 583.667 538.198 583.957 538.198 584.302C538.198 584.601 538.286 584.848 538.464 585.044C538.65 585.231 538.879 585.38 539.15 585.492C539.42 585.595 539.784 585.711 540.242 585.842C540.792 585.991 541.231 586.136 541.558 586.276C541.884 586.416 542.164 586.621 542.398 586.892C542.631 587.163 542.752 587.522 542.762 587.97C542.762 588.381 542.65 588.749 542.426 589.076C542.202 589.393 541.889 589.645 541.488 589.832C541.086 590.019 540.624 590.112 540.102 590.112ZM547.238 590.112C546.361 590.112 545.642 589.911 545.082 589.51C544.532 589.099 544.224 588.544 544.158 587.844H545.166C545.213 588.273 545.414 588.623 545.768 588.894C546.132 589.155 546.618 589.286 547.224 589.286C547.756 589.286 548.172 589.16 548.47 588.908C548.778 588.656 548.932 588.343 548.932 587.97C548.932 587.709 548.848 587.494 548.68 587.326C548.512 587.158 548.298 587.027 548.036 586.934C547.784 586.831 547.439 586.724 547 586.612C546.431 586.463 545.969 586.313 545.614 586.164C545.26 586.015 544.956 585.795 544.704 585.506C544.462 585.207 544.34 584.811 544.34 584.316C544.34 583.943 544.452 583.597 544.676 583.28C544.9 582.963 545.218 582.711 545.628 582.524C546.039 582.337 546.506 582.244 547.028 582.244C547.85 582.244 548.512 582.454 549.016 582.874C549.52 583.285 549.791 583.854 549.828 584.582H548.848C548.82 584.134 548.643 583.775 548.316 583.504C547.999 583.224 547.56 583.084 547 583.084C546.506 583.084 546.104 583.201 545.796 583.434C545.488 583.667 545.334 583.957 545.334 584.302C545.334 584.601 545.423 584.848 545.6 585.044C545.787 585.231 546.016 585.38 546.286 585.492C546.557 585.595 546.921 585.711 547.378 585.842C547.929 585.991 548.368 586.136 548.694 586.276C549.021 586.416 549.301 586.621 549.534 586.892C549.768 587.163 549.889 587.522 549.898 587.97C549.898 588.381 549.786 588.749 549.562 589.076C549.338 589.393 549.026 589.645 548.624 589.832C548.223 590.019 547.761 590.112 547.238 590.112ZM561.823 582.356L559.429 590H558.449L556.335 583.588L554.221 590H553.227L550.833 582.356H551.827L553.731 589.006L555.873 582.356H556.853L558.967 589.02L560.857 582.356H561.823ZM566.505 590.112C565.786 590.112 565.138 589.953 564.559 589.636C563.99 589.309 563.537 588.852 563.201 588.264C562.874 587.667 562.711 586.971 562.711 586.178C562.711 585.385 562.879 584.694 563.215 584.106C563.551 583.509 564.008 583.051 564.587 582.734C565.166 582.407 565.814 582.244 566.533 582.244C567.252 582.244 567.9 582.407 568.479 582.734C569.067 583.051 569.524 583.509 569.851 584.106C570.187 584.694 570.355 585.385 570.355 586.178C570.355 586.962 570.187 587.653 569.851 588.25C569.515 588.847 569.053 589.309 568.465 589.636C567.877 589.953 567.224 590.112 566.505 590.112ZM566.505 589.258C567.009 589.258 567.476 589.146 567.905 588.922C568.334 588.689 568.68 588.343 568.941 587.886C569.212 587.419 569.347 586.85 569.347 586.178C569.347 585.506 569.216 584.941 568.955 584.484C568.694 584.017 568.348 583.672 567.919 583.448C567.49 583.215 567.023 583.098 566.519 583.098C566.015 583.098 565.548 583.215 565.119 583.448C564.69 583.672 564.344 584.017 564.083 584.484C563.831 584.941 563.705 585.506 563.705 586.178C563.705 586.85 563.831 587.419 564.083 587.886C564.344 588.343 564.685 588.689 565.105 588.922C565.534 589.146 566.001 589.258 566.505 589.258ZM573.121 583.714C573.336 583.238 573.663 582.869 574.101 582.608C574.549 582.347 575.095 582.216 575.739 582.216V583.238H575.473C574.764 583.238 574.195 583.429 573.765 583.812C573.336 584.195 573.121 584.834 573.121 585.73V590H572.141V582.356H573.121V583.714ZM576.766 586.164C576.766 585.38 576.924 584.694 577.242 584.106C577.559 583.509 577.993 583.051 578.544 582.734C579.104 582.407 579.734 582.244 580.434 582.244C581.106 582.244 581.712 582.407 582.254 582.734C582.795 583.061 583.192 583.485 583.444 584.008V579.64H584.424V590H583.444V588.292C583.21 588.824 582.828 589.263 582.296 589.608C581.764 589.944 581.138 590.112 580.42 590.112C579.72 590.112 579.09 589.949 578.53 589.622C577.979 589.295 577.545 588.833 577.228 588.236C576.92 587.639 576.766 586.948 576.766 586.164ZM583.444 586.178C583.444 585.562 583.318 585.021 583.066 584.554C582.814 584.087 582.468 583.728 582.03 583.476C581.6 583.224 581.124 583.098 580.602 583.098C580.06 583.098 579.575 583.219 579.146 583.462C578.716 583.705 578.376 584.059 578.124 584.526C577.881 584.983 577.76 585.529 577.76 586.164C577.76 586.789 577.881 587.34 578.124 587.816C578.376 588.283 578.716 588.642 579.146 588.894C579.575 589.137 580.06 589.258 580.602 589.258C581.124 589.258 581.6 589.132 582.03 588.88C582.468 588.628 582.814 588.269 583.066 587.802C583.318 587.335 583.444 586.794 583.444 586.178Z" fill="#808080"/>
<path d="M681.125 788H679.942L675.184 780.785V788H674.001V778.926H675.184L679.942 786.128V778.926H681.125V788ZM682.7 784.412C682.7 783.684 682.847 783.047 683.142 782.501C683.436 781.946 683.839 781.517 684.351 781.214C684.871 780.911 685.447 780.759 686.08 780.759C686.704 780.759 687.245 780.893 687.705 781.162C688.164 781.431 688.506 781.769 688.732 782.176V780.876H689.928V788H688.732V786.674C688.498 787.09 688.147 787.437 687.679 787.714C687.219 787.983 686.682 788.117 686.067 788.117C685.434 788.117 684.862 787.961 684.351 787.649C683.839 787.337 683.436 786.899 683.142 786.336C682.847 785.773 682.7 785.131 682.7 784.412ZM688.732 784.425C688.732 783.888 688.623 783.42 688.407 783.021C688.19 782.622 687.895 782.319 687.523 782.111C687.159 781.894 686.756 781.786 686.314 781.786C685.872 781.786 685.469 781.89 685.105 782.098C684.741 782.306 684.45 782.609 684.234 783.008C684.017 783.407 683.909 783.875 683.909 784.412C683.909 784.958 684.017 785.435 684.234 785.842C684.45 786.241 684.741 786.548 685.105 786.765C685.469 786.973 685.872 787.077 686.314 787.077C686.756 787.077 687.159 786.973 687.523 786.765C687.895 786.548 688.19 786.241 688.407 785.842C688.623 785.435 688.732 784.962 688.732 784.425ZM684.637 780.109C684.697 779.667 684.84 779.329 685.066 779.095C685.3 778.861 685.59 778.744 685.937 778.744C686.101 778.744 686.24 778.774 686.353 778.835C686.474 778.887 686.617 778.965 686.782 779.069C686.903 779.156 687.011 779.225 687.107 779.277C687.202 779.32 687.306 779.342 687.419 779.342C687.566 779.342 687.692 779.294 687.796 779.199C687.9 779.104 687.965 778.965 687.991 778.783H688.667C688.615 779.216 688.472 779.55 688.238 779.784C688.004 780.018 687.713 780.135 687.367 780.135C687.202 780.135 687.055 780.109 686.925 780.057C686.803 779.996 686.665 779.91 686.509 779.797C686.37 779.71 686.257 779.645 686.171 779.602C686.093 779.559 685.997 779.537 685.885 779.537C685.737 779.537 685.612 779.585 685.508 779.68C685.412 779.775 685.352 779.918 685.326 780.109H684.637ZM695.034 788.117C694.366 788.117 693.76 787.965 693.214 787.662C692.676 787.359 692.252 786.93 691.94 786.375C691.636 785.812 691.485 785.162 691.485 784.425C691.485 783.697 691.641 783.056 691.953 782.501C692.273 781.938 692.707 781.509 693.253 781.214C693.799 780.911 694.41 780.759 695.086 780.759C695.762 780.759 696.373 780.911 696.919 781.214C697.465 781.509 697.894 781.933 698.206 782.488C698.526 783.043 698.687 783.688 698.687 784.425C698.687 785.162 698.522 785.812 698.193 786.375C697.872 786.93 697.434 787.359 696.88 787.662C696.325 787.965 695.71 788.117 695.034 788.117ZM695.034 787.077C695.458 787.077 695.857 786.977 696.23 786.778C696.602 786.579 696.901 786.28 697.127 785.881C697.361 785.482 697.478 784.997 697.478 784.425C697.478 783.853 697.365 783.368 697.14 782.969C696.914 782.57 696.62 782.276 696.256 782.085C695.892 781.886 695.497 781.786 695.073 781.786C694.639 781.786 694.241 781.886 693.877 782.085C693.521 782.276 693.235 782.57 693.019 782.969C692.802 783.368 692.694 783.853 692.694 784.425C692.694 785.006 692.798 785.495 693.006 785.894C693.222 786.293 693.508 786.592 693.864 786.791C694.219 786.982 694.609 787.077 695.034 787.077ZM704.891 782.189C705.125 781.782 705.472 781.444 705.931 781.175C706.399 780.898 706.941 780.759 707.556 780.759C708.189 780.759 708.761 780.911 709.272 781.214C709.792 781.517 710.199 781.946 710.494 782.501C710.789 783.047 710.936 783.684 710.936 784.412C710.936 785.131 710.789 785.773 710.494 786.336C710.199 786.899 709.792 787.337 709.272 787.649C708.761 787.961 708.189 788.117 707.556 788.117C706.949 788.117 706.412 787.983 705.944 787.714C705.485 787.437 705.134 787.094 704.891 786.687V791.38H703.708V780.876H704.891V782.189ZM709.727 784.412C709.727 783.875 709.619 783.407 709.402 783.008C709.185 782.609 708.891 782.306 708.518 782.098C708.154 781.89 707.751 781.786 707.309 781.786C706.876 781.786 706.473 781.894 706.1 782.111C705.736 782.319 705.441 782.627 705.216 783.034C704.999 783.433 704.891 783.896 704.891 784.425C704.891 784.962 704.999 785.435 705.216 785.842C705.441 786.241 705.736 786.548 706.1 786.765C706.473 786.973 706.876 787.077 707.309 787.077C707.751 787.077 708.154 786.973 708.518 786.765C708.891 786.548 709.185 786.241 709.402 785.842C709.619 785.435 709.727 784.958 709.727 784.412ZM715.6 788.117C714.933 788.117 714.326 787.965 713.78 787.662C713.243 787.359 712.818 786.93 712.506 786.375C712.203 785.812 712.051 785.162 712.051 784.425C712.051 783.697 712.207 783.056 712.519 782.501C712.84 781.938 713.273 781.509 713.819 781.214C714.365 780.911 714.976 780.759 715.652 780.759C716.328 780.759 716.939 780.911 717.485 781.214C718.031 781.509 718.46 781.933 718.772 782.488C719.093 783.043 719.253 783.688 719.253 784.425C719.253 785.162 719.089 785.812 718.759 786.375C718.439 786.93 718.001 787.359 717.446 787.662C716.892 787.965 716.276 788.117 715.6 788.117ZM715.6 787.077C716.025 787.077 716.424 786.977 716.796 786.778C717.169 786.579 717.468 786.28 717.693 785.881C717.927 785.482 718.044 784.997 718.044 784.425C718.044 783.853 717.932 783.368 717.706 782.969C717.481 782.57 717.186 782.276 716.822 782.085C716.458 781.886 716.064 781.786 715.639 781.786C715.206 781.786 714.807 781.886 714.443 782.085C714.088 782.276 713.802 782.57 713.585 782.969C713.369 783.368 713.26 783.853 713.26 784.425C713.26 785.006 713.364 785.495 713.572 785.894C713.789 786.293 714.075 786.592 714.43 786.791C714.786 786.982 715.176 787.077 715.6 787.077ZM723.331 788.117C722.785 788.117 722.295 788.026 721.862 787.844C721.428 787.653 721.086 787.393 720.835 787.064C720.583 786.726 720.445 786.34 720.419 785.907H721.641C721.675 786.262 721.84 786.553 722.135 786.778C722.438 787.003 722.832 787.116 723.318 787.116C723.768 787.116 724.124 787.016 724.384 786.817C724.644 786.618 724.774 786.366 724.774 786.063C724.774 785.751 724.635 785.521 724.358 785.374C724.08 785.218 723.651 785.066 723.071 784.919C722.542 784.78 722.109 784.642 721.771 784.503C721.441 784.356 721.155 784.143 720.913 783.866C720.679 783.58 720.562 783.207 720.562 782.748C720.562 782.384 720.67 782.05 720.887 781.747C721.103 781.444 721.411 781.205 721.81 781.032C722.208 780.85 722.663 780.759 723.175 780.759C723.963 780.759 724.6 780.958 725.086 781.357C725.571 781.756 725.831 782.302 725.866 782.995H724.683C724.657 782.622 724.505 782.323 724.228 782.098C723.959 781.873 723.595 781.76 723.136 781.76C722.711 781.76 722.373 781.851 722.122 782.033C721.87 782.215 721.745 782.453 721.745 782.748C721.745 782.982 721.818 783.177 721.966 783.333C722.122 783.48 722.312 783.602 722.538 783.697C722.772 783.784 723.092 783.883 723.5 783.996C724.011 784.135 724.427 784.273 724.748 784.412C725.068 784.542 725.341 784.741 725.567 785.01C725.801 785.279 725.922 785.63 725.931 786.063C725.931 786.453 725.822 786.804 725.606 787.116C725.389 787.428 725.081 787.675 724.683 787.857C724.293 788.03 723.842 788.117 723.331 788.117ZM730.123 788.117C729.577 788.117 729.087 788.026 728.654 787.844C728.22 787.653 727.878 787.393 727.627 787.064C727.375 786.726 727.237 786.34 727.211 785.907H728.433C728.467 786.262 728.632 786.553 728.927 786.778C729.23 787.003 729.624 787.116 730.11 787.116C730.56 787.116 730.916 787.016 731.176 786.817C731.436 786.618 731.566 786.366 731.566 786.063C731.566 785.751 731.427 785.521 731.15 785.374C730.872 785.218 730.443 785.066 729.863 784.919C729.334 784.78 728.901 784.642 728.563 784.503C728.233 784.356 727.947 784.143 727.705 783.866C727.471 783.58 727.354 783.207 727.354 782.748C727.354 782.384 727.462 782.05 727.679 781.747C727.895 781.444 728.203 781.205 728.602 781.032C729 780.85 729.455 780.759 729.967 780.759C730.755 780.759 731.392 780.958 731.878 781.357C732.363 781.756 732.623 782.302 732.658 782.995H731.475C731.449 782.622 731.297 782.323 731.02 782.098C730.751 781.873 730.387 781.76 729.928 781.76C729.503 781.76 729.165 781.851 728.914 782.033C728.662 782.215 728.537 782.453 728.537 782.748C728.537 782.982 728.61 783.177 728.758 783.333C728.914 783.48 729.104 783.602 729.33 783.697C729.564 783.784 729.884 783.883 730.292 783.996C730.803 784.135 731.219 784.273 731.54 784.412C731.86 784.542 732.133 784.741 732.359 785.01C732.593 785.279 732.714 785.63 732.723 786.063C732.723 786.453 732.614 786.804 732.398 787.116C732.181 787.428 731.873 787.675 731.475 787.857C731.085 788.03 730.634 788.117 730.123 788.117ZM740.711 780.876V788H739.528V786.947C739.302 787.311 738.986 787.597 738.579 787.805C738.18 788.004 737.738 788.104 737.253 788.104C736.698 788.104 736.2 787.991 735.758 787.766C735.316 787.532 734.965 787.185 734.705 786.726C734.453 786.267 734.328 785.708 734.328 785.049V780.876H735.498V784.893C735.498 785.595 735.675 786.137 736.031 786.518C736.386 786.891 736.871 787.077 737.487 787.077C738.119 787.077 738.618 786.882 738.982 786.492C739.346 786.102 739.528 785.534 739.528 784.789V780.876H740.711ZM743.319 779.719C743.094 779.719 742.903 779.641 742.747 779.485C742.591 779.329 742.513 779.138 742.513 778.913C742.513 778.688 742.591 778.497 742.747 778.341C742.903 778.185 743.094 778.107 743.319 778.107C743.536 778.107 743.718 778.185 743.865 778.341C744.021 778.497 744.099 778.688 744.099 778.913C744.099 779.138 744.021 779.329 743.865 779.485C743.718 779.641 743.536 779.719 743.319 779.719ZM743.891 780.876V788H742.708V780.876H743.891ZM748.931 784.425C748.931 783.688 749.078 783.047 749.373 782.501C749.668 781.946 750.075 781.517 750.595 781.214C751.124 780.911 751.726 780.759 752.402 780.759C753.277 780.759 753.997 780.971 754.56 781.396C755.132 781.821 755.509 782.41 755.691 783.164H754.417C754.296 782.731 754.057 782.388 753.702 782.137C753.355 781.886 752.922 781.76 752.402 781.76C751.726 781.76 751.18 781.994 750.764 782.462C750.348 782.921 750.14 783.576 750.14 784.425C750.14 785.283 750.348 785.946 750.764 786.414C751.18 786.882 751.726 787.116 752.402 787.116C752.922 787.116 753.355 786.995 753.702 786.752C754.049 786.509 754.287 786.163 754.417 785.712H755.691C755.5 786.44 755.119 787.025 754.547 787.467C753.975 787.9 753.26 788.117 752.402 788.117C751.726 788.117 751.124 787.965 750.595 787.662C750.075 787.359 749.668 786.93 749.373 786.375C749.078 785.82 748.931 785.17 748.931 784.425ZM760.377 788.117C759.709 788.117 759.103 787.965 758.557 787.662C758.019 787.359 757.595 786.93 757.283 786.375C756.979 785.812 756.828 785.162 756.828 784.425C756.828 783.697 756.984 783.056 757.296 782.501C757.616 781.938 758.05 781.509 758.596 781.214C759.142 780.911 759.753 780.759 760.429 780.759C761.105 780.759 761.716 780.911 762.262 781.214C762.808 781.509 763.237 781.933 763.549 782.488C763.869 783.043 764.03 783.688 764.03 784.425C764.03 785.162 763.865 785.812 763.536 786.375C763.215 786.93 762.777 787.359 762.223 787.662C761.668 787.965 761.053 788.117 760.377 788.117ZM760.377 787.077C760.801 787.077 761.2 786.977 761.573 786.778C761.945 786.579 762.244 786.28 762.47 785.881C762.704 785.482 762.821 784.997 762.821 784.425C762.821 783.853 762.708 783.368 762.483 782.969C762.257 782.57 761.963 782.276 761.599 782.085C761.235 781.886 760.84 781.786 760.416 781.786C759.982 781.786 759.584 781.886 759.22 782.085C758.864 782.276 758.578 782.57 758.362 782.969C758.145 783.368 758.037 783.853 758.037 784.425C758.037 785.006 758.141 785.495 758.349 785.894C758.565 786.293 758.851 786.592 759.207 786.791C759.562 786.982 759.952 787.077 760.377 787.077ZM769.056 780.746C769.923 780.746 770.625 781.01 771.162 781.539C771.699 782.059 771.968 782.813 771.968 783.801V788H770.798V783.97C770.798 783.259 770.62 782.718 770.265 782.345C769.91 781.964 769.424 781.773 768.809 781.773C768.185 781.773 767.687 781.968 767.314 782.358C766.95 782.748 766.768 783.316 766.768 784.061V788H765.585V780.876H766.768V781.89C767.002 781.526 767.318 781.244 767.717 781.045C768.124 780.846 768.571 780.746 769.056 780.746ZM775.343 781.851V786.05C775.343 786.397 775.417 786.644 775.564 786.791C775.712 786.93 775.967 786.999 776.331 786.999H777.202V788H776.136C775.478 788 774.984 787.848 774.654 787.545C774.325 787.242 774.16 786.743 774.16 786.05V781.851H773.237V780.876H774.16V779.082H775.343V780.876H777.202V781.851H775.343ZM778.194 784.412C778.194 783.684 778.341 783.047 778.636 782.501C778.93 781.946 779.333 781.517 779.845 781.214C780.365 780.911 780.941 780.759 781.574 780.759C782.198 780.759 782.739 780.893 783.199 781.162C783.658 781.431 784 781.769 784.226 782.176V780.876H785.422V788H784.226V786.674C783.992 787.09 783.641 787.437 783.173 787.714C782.713 787.983 782.176 788.117 781.561 788.117C780.928 788.117 780.356 787.961 779.845 787.649C779.333 787.337 778.93 786.899 778.636 786.336C778.341 785.773 778.194 785.131 778.194 784.412ZM784.226 784.425C784.226 783.888 784.117 783.42 783.901 783.021C783.684 782.622 783.389 782.319 783.017 782.111C782.653 781.894 782.25 781.786 781.808 781.786C781.366 781.786 780.963 781.89 780.599 782.098C780.235 782.306 779.944 782.609 779.728 783.008C779.511 783.407 779.403 783.875 779.403 784.412C779.403 784.958 779.511 785.435 779.728 785.842C779.944 786.241 780.235 786.548 780.599 786.765C780.963 786.973 781.366 787.077 781.808 787.077C782.25 787.077 782.653 786.973 783.017 786.765C783.389 786.548 783.684 786.241 783.901 785.842C784.117 785.435 784.226 784.962 784.226 784.425ZM793.201 778.822C794.059 778.822 794.752 779.065 795.281 779.55C795.809 780.035 796.074 780.685 796.074 781.5C796.074 782.41 795.792 783.086 795.229 783.528C794.665 783.961 793.903 784.178 792.941 784.178L792.902 785.413H791.875L791.823 783.359H792.2C793.058 783.359 793.729 783.229 794.215 782.969C794.7 782.709 794.943 782.219 794.943 781.5C794.943 780.98 794.787 780.568 794.475 780.265C794.163 779.962 793.742 779.81 793.214 779.81C792.676 779.81 792.252 779.957 791.94 780.252C791.636 780.538 791.485 780.932 791.485 781.435H790.367C790.367 780.915 790.484 780.46 790.718 780.07C790.952 779.671 791.281 779.364 791.706 779.147C792.139 778.93 792.637 778.822 793.201 778.822ZM792.382 788.078C792.156 788.078 791.966 788 791.81 787.844C791.654 787.688 791.576 787.497 791.576 787.272C791.576 787.047 791.654 786.856 791.81 786.7C791.966 786.544 792.156 786.466 792.382 786.466C792.598 786.466 792.78 786.544 792.928 786.7C793.084 786.856 793.162 787.047 793.162 787.272C793.162 787.497 793.084 787.688 792.928 787.844C792.78 788 792.598 788.078 792.382 788.078ZM800.728 783.463C800.728 782.579 800.927 781.786 801.326 781.084C801.725 780.373 802.266 779.819 802.951 779.42C803.644 779.021 804.411 778.822 805.252 778.822C806.24 778.822 807.102 779.06 807.839 779.537C808.576 780.014 809.113 780.69 809.451 781.565H808.034C807.783 781.019 807.419 780.599 806.942 780.304C806.474 780.009 805.911 779.862 805.252 779.862C804.619 779.862 804.052 780.009 803.549 780.304C803.046 780.599 802.652 781.019 802.366 781.565C802.08 782.102 801.937 782.735 801.937 783.463C801.937 784.182 802.08 784.815 802.366 785.361C802.652 785.898 803.046 786.314 803.549 786.609C804.052 786.904 804.619 787.051 805.252 787.051C805.911 787.051 806.474 786.908 806.942 786.622C807.419 786.327 807.783 785.907 808.034 785.361H809.451C809.113 786.228 808.576 786.899 807.839 787.376C807.102 787.844 806.24 788.078 805.252 788.078C804.411 788.078 803.644 787.883 802.951 787.493C802.266 787.094 801.725 786.544 801.326 785.842C800.927 785.14 800.728 784.347 800.728 783.463ZM812.395 782.033C812.603 781.626 812.898 781.309 813.279 781.084C813.669 780.859 814.141 780.746 814.696 780.746V781.968H814.384C813.058 781.968 812.395 782.687 812.395 784.126V788H811.212V780.876H812.395V782.033ZM816.673 779.719C816.447 779.719 816.257 779.641 816.101 779.485C815.945 779.329 815.867 779.138 815.867 778.913C815.867 778.688 815.945 778.497 816.101 778.341C816.257 778.185 816.447 778.107 816.673 778.107C816.889 778.107 817.071 778.185 817.219 778.341C817.375 778.497 817.453 778.688 817.453 778.913C817.453 779.138 817.375 779.329 817.219 779.485C817.071 779.641 816.889 779.719 816.673 779.719ZM817.245 780.876V788H816.062V780.876H817.245ZM825.761 784.165C825.761 784.39 825.748 784.629 825.722 784.88H820.028C820.071 785.582 820.309 786.132 820.743 786.531C821.185 786.921 821.718 787.116 822.342 787.116C822.853 787.116 823.278 786.999 823.616 786.765C823.962 786.522 824.205 786.202 824.344 785.803H825.618C825.427 786.488 825.046 787.047 824.474 787.48C823.902 787.905 823.191 788.117 822.342 788.117C821.666 788.117 821.059 787.965 820.522 787.662C819.993 787.359 819.577 786.93 819.274 786.375C818.97 785.812 818.819 785.162 818.819 784.425C818.819 783.688 818.966 783.043 819.261 782.488C819.555 781.933 819.967 781.509 820.496 781.214C821.033 780.911 821.648 780.759 822.342 780.759C823.018 780.759 823.616 780.906 824.136 781.201C824.656 781.496 825.054 781.903 825.332 782.423C825.618 782.934 825.761 783.515 825.761 784.165ZM824.539 783.918C824.539 783.467 824.439 783.082 824.24 782.761C824.04 782.432 823.767 782.185 823.421 782.02C823.083 781.847 822.706 781.76 822.29 781.76C821.692 781.76 821.18 781.951 820.756 782.332C820.34 782.713 820.101 783.242 820.041 783.918H824.539ZM837.106 780.876V788H835.923V786.947C835.698 787.311 835.381 787.597 834.974 787.805C834.575 788.004 834.133 788.104 833.648 788.104C833.093 788.104 832.595 787.991 832.153 787.766C831.711 787.532 831.36 787.185 831.1 786.726C830.849 786.267 830.723 785.708 830.723 785.049V780.876H831.893V784.893C831.893 785.595 832.071 786.137 832.426 786.518C832.781 786.891 833.267 787.077 833.882 787.077C834.515 787.077 835.013 786.882 835.377 786.492C835.741 786.102 835.923 785.534 835.923 784.789V780.876H837.106ZM847.671 780.746C848.225 780.746 848.719 780.863 849.153 781.097C849.586 781.322 849.928 781.665 850.18 782.124C850.431 782.583 850.557 783.142 850.557 783.801V788H849.387V783.97C849.387 783.259 849.209 782.718 848.854 782.345C848.507 781.964 848.035 781.773 847.437 781.773C846.821 781.773 846.332 781.972 845.968 782.371C845.604 782.761 845.422 783.329 845.422 784.074V788H844.252V783.97C844.252 783.259 844.074 782.718 843.719 782.345C843.372 781.964 842.9 781.773 842.302 781.773C841.686 781.773 841.197 781.972 840.833 782.371C840.469 782.761 840.287 783.329 840.287 784.074V788H839.104V780.876H840.287V781.903C840.521 781.53 840.833 781.244 841.223 781.045C841.621 780.846 842.059 780.746 842.536 780.746C843.134 780.746 843.662 780.88 844.122 781.149C844.581 781.418 844.923 781.812 845.149 782.332C845.348 781.829 845.677 781.439 846.137 781.162C846.596 780.885 847.107 780.746 847.671 780.746ZM852.055 784.412C852.055 783.684 852.202 783.047 852.497 782.501C852.792 781.946 853.195 781.517 853.706 781.214C854.226 780.911 854.802 780.759 855.435 780.759C856.059 780.759 856.601 780.893 857.06 781.162C857.519 781.431 857.862 781.769 858.087 782.176V780.876H859.283V788H858.087V786.674C857.853 787.09 857.502 787.437 857.034 787.714C856.575 787.983 856.037 788.117 855.422 788.117C854.789 788.117 854.217 787.961 853.706 787.649C853.195 787.337 852.792 786.899 852.497 786.336C852.202 785.773 852.055 785.131 852.055 784.412ZM858.087 784.425C858.087 783.888 857.979 783.42 857.762 783.021C857.545 782.622 857.251 782.319 856.878 782.111C856.514 781.894 856.111 781.786 855.669 781.786C855.227 781.786 854.824 781.89 854.46 782.098C854.096 782.306 853.806 782.609 853.589 783.008C853.372 783.407 853.264 783.875 853.264 784.412C853.264 784.958 853.372 785.435 853.589 785.842C853.806 786.241 854.096 786.548 854.46 786.765C854.824 786.973 855.227 787.077 855.669 787.077C856.111 787.077 856.514 786.973 856.878 786.765C857.251 786.548 857.545 786.241 857.762 785.842C857.979 785.435 858.087 784.962 858.087 784.425Z" fill="#4285F4"/>
<g filter="url(#filter1_d_33_0)">
<rect x="494" y="687" width="451" height="54" rx="10" fill="#0089ED"/>
</g>
<path d="M695.024 718.528H698.784V720H693.2V708.88H695.024V718.528ZM704.133 720.144C703.301 720.144 702.549 719.957 701.877 719.584C701.205 719.2 700.677 718.667 700.293 717.984C699.909 717.291 699.717 716.491 699.717 715.584C699.717 714.688 699.915 713.893 700.309 713.2C700.704 712.507 701.243 711.973 701.925 711.6C702.608 711.227 703.371 711.04 704.213 711.04C705.056 711.04 705.819 711.227 706.501 711.6C707.184 711.973 707.723 712.507 708.117 713.2C708.512 713.893 708.709 714.688 708.709 715.584C708.709 716.48 708.507 717.275 708.101 717.968C707.696 718.661 707.141 719.2 706.437 719.584C705.744 719.957 704.976 720.144 704.133 720.144ZM704.133 718.56C704.603 718.56 705.04 718.448 705.445 718.224C705.861 718 706.197 717.664 706.453 717.216C706.709 716.768 706.837 716.224 706.837 715.584C706.837 714.944 706.715 714.405 706.469 713.968C706.224 713.52 705.899 713.184 705.493 712.96C705.088 712.736 704.651 712.624 704.181 712.624C703.712 712.624 703.275 712.736 702.869 712.96C702.475 713.184 702.16 713.52 701.925 713.968C701.691 714.405 701.573 714.944 701.573 715.584C701.573 716.533 701.813 717.269 702.293 717.792C702.784 718.304 703.397 718.56 704.133 718.56ZM714.065 711.04C714.747 711.04 715.35 711.179 715.873 711.456C716.406 711.723 716.822 712.059 717.121 712.464V711.184H718.961V720.144C718.961 720.955 718.79 721.675 718.449 722.304C718.107 722.944 717.611 723.445 716.961 723.808C716.321 724.171 715.553 724.352 714.657 724.352C713.462 724.352 712.47 724.069 711.681 723.504C710.891 722.949 710.443 722.192 710.337 721.232H712.145C712.283 721.691 712.577 722.059 713.025 722.336C713.483 722.624 714.027 722.768 714.657 722.768C715.393 722.768 715.985 722.544 716.433 722.096C716.891 721.648 717.121 720.997 717.121 720.144V718.672C716.811 719.088 716.39 719.44 715.857 719.728C715.334 720.005 714.737 720.144 714.065 720.144C713.297 720.144 712.593 719.952 711.953 719.568C711.323 719.173 710.822 718.629 710.449 717.936C710.086 717.232 709.905 716.437 709.905 715.552C709.905 714.667 710.086 713.883 710.449 713.2C710.822 712.517 711.323 711.989 711.953 711.616C712.593 711.232 713.297 711.04 714.065 711.04ZM717.121 715.584C717.121 714.976 716.993 714.448 716.737 714C716.491 713.552 716.166 713.211 715.761 712.976C715.355 712.741 714.918 712.624 714.449 712.624C713.979 712.624 713.542 712.741 713.137 712.976C712.731 713.2 712.401 713.536 712.145 713.984C711.899 714.421 711.777 714.944 711.777 715.552C711.777 716.16 711.899 716.693 712.145 717.152C712.401 717.611 712.731 717.963 713.137 718.208C713.553 718.443 713.99 718.56 714.449 718.56C714.918 718.56 715.355 718.443 715.761 718.208C716.166 717.973 716.491 717.632 716.737 717.184C716.993 716.725 717.121 716.192 717.121 715.584ZM722.284 710.016C721.954 710.016 721.676 709.904 721.452 709.68C721.228 709.456 721.116 709.179 721.116 708.848C721.116 708.517 721.228 708.24 721.452 708.016C721.676 707.792 721.954 707.68 722.284 707.68C722.604 707.68 722.876 707.792 723.1 708.016C723.324 708.24 723.436 708.517 723.436 708.848C723.436 709.179 723.324 709.456 723.1 709.68C722.876 709.904 722.604 710.016 722.284 710.016ZM723.18 711.184V720H721.356V711.184H723.18ZM730.023 711.04C730.716 711.04 731.335 711.184 731.879 711.472C732.434 711.76 732.866 712.187 733.175 712.752C733.484 713.317 733.639 714 733.639 714.8V720H731.831V715.072C731.831 714.283 731.634 713.68 731.239 713.264C730.844 712.837 730.306 712.624 729.623 712.624C728.94 712.624 728.396 712.837 727.991 713.264C727.596 713.68 727.399 714.283 727.399 715.072V720H725.575V711.184H727.399V712.192C727.698 711.829 728.076 711.547 728.535 711.344C729.004 711.141 729.5 711.04 730.023 711.04Z" fill="white"/>
<defs>
<filter id="filter0_d_33_0" x="415" y="48" width="609" height="811" filterUnits="userSpaceOnUse" color-interpolation-filters="sRGB">
<feFlood flood-opacity="0" result="BackgroundImageFix"/>
<feColorMatrix in="SourceAlpha" type="matrix" values="0 0 0 0 0 0 0 0 0 0 0 0 0 0 0 0 0 0 127 0" result="hardAlpha"/>
<feOffset dy="4"/>
<feGaussianBlur stdDeviation="17.5"/>
<feColorMatrix type="matrix" values="0 0 0 0 0 0 0 0 0 0 0 0 0 0 0 0 0 0 0.08 0"/>
<feBlend mode="normal" in2="BackgroundImageFix" result="effect1_dropShadow_33_0"/>
<feBlend mode="normal" in="SourceGraphic" in2="effect1_dropShadow_33_0" result="shape"/>
</filter>
<filter id="filter1_d_33_0" x="475" y="672" width="489" height="92" filterUnits="userSpaceOnUse" color-interpolation-filters="sRGB">
<feFlood flood-opacity="0" result="BackgroundImageFix"/>
<feColorMatrix in="SourceAlpha" type="matrix" values="0 0 0 0 0 0 0 0 0 0 0 0 0 0 0 0 0 0 127 0" result="hardAlpha"/>
<feOffset dy="4"/>
<feGaussianBlur stdDeviation="9.5"/>
<feColorMatrix type="matrix" values="0 0 0 0 0.466667 0 0 0 0 0.576471 0 0 0 0 0.254902 0 0 0 0.3 0"/>
<feBlend mode="normal" in2="BackgroundImageFix" result="effect1_dropShadow_33_0"/>
<feBlend mode="normal" in="SourceGraphic" in2="effect1_dropShadow_33_0" result="shape"/>
</filter>
</defs>
</svg>
